<svg id="Layer_1" xmlns="http://www.w3.org/2000/svg" viewBox="0 0 19.003 20.41"><style>.st0{fill:#808f98}</style><path class="st0" d="M3.393 13.451h9.219v.75H3.393zM4.393 11.289h7.219v.75H4.393zM4.893 15.614h6.219v.75H4.893zM12.611 4.421H3.392v5.141h9.219V4.421zm-1 4.141H4.392V5.421h7.219v3.141z"/><path class="st0" d="M18.316 2.853h-2.305V.697a.692.692 0 0 0-.691-.691H.723a.692.692 0 0 0-.691.691v19.056c0 .381.31.691.691.691h16.305a2 2 0 0 0 1.98-1.998V3.544a.693.693 0 0 0-.692-.691zM1.032 19.444V1.005h13.98v17.441c0 .363.098.704.268.998H1.032zm16.976-.998a.998.998 0 0 1-1.996 0V3.853h1.996v14.593z"/></svg>