<svg id="Layer_1" xmlns="http://www.w3.org/2000/svg" viewBox="0 0 19.003 20.41"><style>.st0{fill:#808f98}</style><path class="st0" d="M2.991 15.667h3.314V7.989H2.991v7.678zm.75-6.928h1.814v6.179H3.741V8.739zM7.31 11.329h6.453v-3.34H7.31v3.34zm.75-2.59h4.953v1.84H8.06v-1.84zM7.31 15.667h6.453v-3.34H7.31v3.34zm.75-2.59h4.953v1.84H8.06v-1.84zM8.689 3.415h-.001zM8.688 3.415a.993.993 0 0 0 0-1.984.994.994 0 0 0-.992.992.994.994 0 0 0 .992.992zm0-1.565a.574.574 0 0 1 .001 1.146.574.574 0 0 1-.001-1.146z"/><path class="st0" d="M18.503 2.251h-1.49l.99 1v16.16H2.957l-1.23-1.23h14.519c.28 0 .506-.227.506-.506V.506A.506.506 0 0 0 16.246 0H.506.5a.5.5 0 0 0-.5.5v17.175c0 .164.083.303.204.396l2.193 2.193a.499.499 0 0 0 .353.146h15.753a.5.5 0 0 0 .5-.5V2.751a.5.5 0 0 0-.5-.5zM1 17.182V6.592h14.753v10.589H1zm0-11.34V5.11l5.037-1.055 2.428 1.199c.133.066.32.064.45-.005l6.838-2.494v3.086H1zM15.753 1v1.166L8.678 4.781 6.272 3.594a.53.53 0 0 0-.422-.009L1 4.562V1h14.753z"/></svg>