<?xml version="1.0" encoding="utf-8"?>
<!-- Generator: Adobe Illustrator 16.0.1, SVG Export Plug-In . SVG Version: 6.00 Build 0)  -->
<!DOCTYPE svg PUBLIC "-//W3C//DTD SVG 1.0//EN" "http://www.w3.org/TR/2001/REC-SVG-20010904/DTD/svg10.dtd">
<svg version="1.0" id="Layer_1" xmlns="http://www.w3.org/2000/svg" xmlns:xlink="http://www.w3.org/1999/xlink" x="0px" y="0px"
	 width="20px" height="20px" viewBox="0 0 20 20" enable-background="new 0 0 20 20" xml:space="preserve">
<g>
	<path fill="#000" d="M6.108,0.791C7.342,0.264,8.639,0,10,0c1.36,0,2.658,0.264,3.892,0.791s2.297,1.237,3.188,2.129
		s1.602,1.955,2.129,3.188S20,8.639,20,10c0,1.354-0.264,2.648-0.791,3.882s-1.237,2.298-2.129,3.193s-1.956,1.606-3.193,2.134
		S11.354,20,10,20c-1.354,0-2.65-0.264-3.887-0.791s-2.301-1.238-3.193-2.134s-1.602-1.96-2.129-3.193S0,11.354,0,10
		c0-1.361,0.264-2.658,0.791-3.892S2.028,3.812,2.92,2.92S4.875,1.318,6.108,0.791z M12.842,14.482
		c0.234,0.071,0.506,0.166,0.815,0.283s0.757,0.344,1.343,0.679s1.11,0.708,1.572,1.118c0.853-0.859,1.519-1.854,1.997-2.983
		s0.718-2.322,0.718-3.579c0-1.256-0.246-2.459-0.737-3.608s-1.15-2.137-1.978-2.964s-1.814-1.486-2.964-1.978
		S11.257,0.713,10,0.713c-1.256,0-2.459,0.246-3.608,0.737S4.254,2.601,3.428,3.428S1.942,5.243,1.45,6.392S0.713,8.744,0.713,10
		c0,1.23,0.229,2.399,0.688,3.506s1.102,2.087,1.929,2.939c0.404-0.306,0.882-0.599,1.436-0.879s1.334-0.632,2.344-1.055
		c0.371-0.397,0.557-0.886,0.557-1.465c0-0.403-0.052-0.771-0.156-1.104s-0.231-0.608-0.381-0.83
		c-0.15-0.221-0.299-0.435-0.449-0.64s-0.277-0.435-0.381-0.688s-0.156-0.527-0.156-0.82c0-0.208,0.026-0.404,0.078-0.586
		C6.025,7.728,5.928,7.061,5.928,6.377C5.928,5.85,6,5.37,6.143,4.937S6.504,4.115,6.797,3.77s0.692-0.615,1.196-0.811
		s1.095-0.293,1.772-0.293c0.449-0.104,0.836-0.156,1.162-0.156c0.43,0,0.818,0.077,1.167,0.229s0.635,0.356,0.859,0.61
		s0.413,0.552,0.566,0.894s0.262,0.693,0.327,1.055s0.098,0.734,0.098,1.118c0,0.631-0.062,1.162-0.186,1.592
		c0.176,0.631,0.039,1.403-0.41,2.314c-0.065,0.124-0.195,0.373-0.391,0.747c-0.195,0.374-0.334,0.646-0.415,0.815
		s-0.164,0.383-0.249,0.64s-0.127,0.48-0.127,0.669C12.168,13.675,12.393,14.104,12.842,14.482z"/>
</g>
</svg>
