<?xml version="1.0" encoding="UTF-8" standalone="no"?>
<svg width="16px" height="16px" viewBox="0 0 16 16" version="1.1" xmlns="http://www.w3.org/2000/svg" xmlns:xlink="http://www.w3.org/1999/xlink">
    <!-- Generator: Sketch 3.6.1 (26313) - http://www.bohemiancoding.com/sketch -->
    <title>bank</title>
    <desc>Created with Sketch.</desc>
    <defs></defs>
    <g id="Icons" stroke="none" stroke-width="1" fill="none" fill-rule="evenodd">
        <g id="bank" fill="#000000">
            <path d="M8,11.8570357 L2.5,11.8570357 C2.2235,11.8570357 2,11.9528214 2,12.0713214 L2,13.7856071 C2,13.9041071 2.2235,13.9998929 2.5,13.9998929 L8,13.9998929 L8,11.8570357 Z M13.5,11.8570357 L8,11.8570357 L8,13.9998929 L13.5,13.9998929 C13.7765,13.9998929 14,13.9041071 14,13.7856071 L14,12.0713214 C14,11.9528214 13.7765,11.8570357 13.5,11.8570357 Z M10.7857143,10.9998929 C10.6672143,10.9998929 10.5714286,11.0956786 10.5714286,11.2141786 L10.5714286,11.4284643 L13.1428571,11.4284643 L13.1428571,11.2141786 C13.1428571,11.0956786 13.0470714,10.9998929 12.9285714,10.9998929 L12.7142857,10.9998929 L12.7142857,7.57132143 L12.9285714,7.57132143 C13.0470714,7.57132143 13.1428571,7.47553571 13.1428571,7.35703571 L13.1428571,7.14275 L10.5714286,7.14275 L10.5714286,7.35703571 C10.5714286,7.47553571 10.6672143,7.57132143 10.7857143,7.57132143 L11,7.57132143 L11,10.9998929 L10.7857143,10.9998929 Z M3.07142857,10.9998929 C2.95292857,10.9998929 2.85714286,11.0956786 2.85714286,11.2141786 L2.85714286,11.4284643 L5.42857143,11.4284643 L5.42857143,11.2141786 C5.42857143,11.0956786 5.33278571,10.9998929 5.21428571,10.9998929 L5,10.9998929 L5,7.57132143 L5.21428571,7.57132143 C5.33278571,7.57132143 5.42857143,7.47553571 5.42857143,7.35703571 L5.42857143,7.14275 L2.85714286,7.14275 L2.85714286,7.35703571 C2.85714286,7.47553571 2.95292857,7.57132143 3.07142857,7.57132143 L3.28571429,7.57132143 L3.28571429,10.9998929 L3.07142857,10.9998929 Z M6.92857143,10.9998929 C6.81007143,10.9998929 6.71428571,11.0956786 6.71428571,11.2141786 L6.71428571,11.4284643 L9.28571429,11.4284643 L9.28571429,11.2141786 C9.28571429,11.0956786 9.18992857,10.9998929 9.07142857,10.9998929 L8.85714286,10.9998929 L8.85714286,7.57132143 L9.07142857,7.57132143 C9.18992857,7.57132143 9.28571429,7.47553571 9.28571429,7.35703571 L9.28571429,7.14275 L6.71428571,7.14275 L6.71428571,7.35703571 C6.71428571,7.47553571 6.81007143,7.57132143 6.92857143,7.57132143 L7.14285714,7.57132143 L7.14285714,10.9998929 L6.92857143,10.9998929 Z M2,5.85703571 L2,6.49989286 C2,6.61839286 2.09578571,6.71417857 2.21428571,6.71417857 L13.7857143,6.71417857 C13.9042143,6.71417857 14,6.61839286 14,6.49989286 L14,5.85703571 L2,5.85703571 Z M13.8442143,5.42846429 L8.10928571,2.02989286 C8.04178571,1.99003571 7.95821429,1.99003571 7.89071429,2.02989286 L2.15578571,5.42846429 L13.8442143,5.42846429 Z"></path>
        </g>
    </g>
</svg>