<?xml version="1.0" encoding="UTF-8" standalone="no"?>
<svg width="16px" height="16px" viewBox="0 0 16 16" version="1.1" xmlns="http://www.w3.org/2000/svg" xmlns:xlink="http://www.w3.org/1999/xlink">
    <!-- Generator: Sketch 3.6.1 (26313) - http://www.bohemiancoding.com/sketch -->
    <title>bell</title>
    <desc>Created with Sketch.</desc>
    <defs></defs>
    <g id="Icons" stroke="none" stroke-width="1" fill="none" fill-rule="evenodd">
        <g id="bell" fill="#000000">
            <path d="M12.6363636,10.75 L12.6363636,7.34090909 C12.6363636,4.94161464 11.3048679,3.01376492 9.14889851,2.50115682 L9.02272727,3.03181818 L9.56818182,3.03181818 L9.56818182,2.56818182 C9.56818182,1.7010265 8.86715532,1 8,1 C7.13284468,1 6.43181818,1.7010265 6.43181818,2.56818182 L6.43181818,3.03181818 L6.97727273,3.03181818 L6.85151771,2.50105803 C4.68921751,3.01338003 3.36363636,4.93363461 3.36363636,7.34090909 L3.36363636,10.75 L3.5233963,10.3643054 L2.15975994,11.7279418 L2,11.8877017 L2,12.1136364 L2,12.7954545 L2,13.3409091 L2.54545455,13.3409091 L13.4545455,13.3409091 L14,13.3409091 L14,12.7954545 L14,12.1136364 L14,11.8877017 L13.8402401,11.7279418 L12.4766037,10.3643054 L12.6363636,10.75 L12.6363636,10.75 Z M8,15.0000004 C8.75,15.0000004 9.36363636,14.3880004 9.36363636,13.6400003 L6.63636364,13.6400003 C6.63636364,14.3880004 7.24318182,15.0000004 8,15.0000004 L8,15.0000004 Z M11.5454545,10.9759347 L11.7052145,11.1356946 L13.0688508,12.499331 L12.9090909,12.1136364 L12.9090909,12.7954545 L13.4545455,12.25 L2.54545455,12.25 L3.09090909,12.7954545 L3.09090909,12.1136364 L2.93114915,12.499331 L4.29478552,11.1356946 L4.45454545,10.9759347 L4.45454545,10.75 L4.45454545,7.34090909 C4.45454545,5.41266525 5.46353494,3.95102959 7.10302775,3.56257833 L7.52272727,3.46313733 L7.52272727,3.03181818 L7.52272727,2.56818182 C7.52272727,2.30351895 7.73533714,2.09090909 8,2.09090909 C8.26466286,2.09090909 8.47727273,2.30351895 8.47727273,2.56818182 L8.47727273,3.03181818 L8.47727273,3.46278981 L8.89655604,3.56247954 C10.5304517,3.95095823 11.5454545,5.42056333 11.5454545,7.34090909 L11.5454545,10.75 L11.5454545,10.9759347 Z"></path>
        </g>
    </g>
</svg>