<?xml version="1.0" encoding="UTF-8" standalone="no"?>
<svg width="16px" height="16px" viewBox="0 0 16 16" version="1.1" xmlns="http://www.w3.org/2000/svg" xmlns:xlink="http://www.w3.org/1999/xlink">
    <!-- Generator: Sketch 3.6.1 (26313) - http://www.bohemiancoding.com/sketch -->
    <title>camera</title>
    <desc>Created with Sketch.</desc>
    <defs></defs>
    <g id="Icons" stroke="none" stroke-width="1" fill="none" fill-rule="evenodd">
        <g id="camera" fill="#000000">
            <path d="M3.19447708,4.2 C2.53478561,4.2 2,4.73670825 2,5.39643617 L2,12.6035638 C2,13.2643373 2.53892743,13.8 3.19447708,13.8 L12.8055229,13.8 C13.4652144,13.8 14,13.2632917 14,12.6035638 L14,5.39643617 C14,4.73566272 13.4610726,4.2 12.8055229,4.2 L3.19447708,4.2 L3.19447708,4.2 L3.19447708,4.2 Z M8,12 C9.65685425,12 11,10.6568542 11,9 C11,7.34314575 9.65685425,6 8,6 C6.34314575,6 5,7.34314575 5,9 C5,10.6568542 6.34314575,12 8,12 L8,12 L8,12 Z M8,10.8 C8.99411255,10.8 9.8,9.99411255 9.8,9 C9.8,8.00588745 8.99411255,7.2 8,7.2 C7.00588745,7.2 6.2,8.00588745 6.2,9 C6.2,9.99411255 7.00588745,10.8 8,10.8 L8,10.8 L8,10.8 Z M6.2,3 L5,4.2 L11,4.2 L9.8,3 L6.2,3 L6.2,3 L6.2,3 Z"></path>
        </g>
    </g>
</svg>