<?xml version="1.0" encoding="UTF-8" standalone="no"?>
<svg width="16px" height="16px" viewBox="0 0 16 16" version="1.1" xmlns="http://www.w3.org/2000/svg" xmlns:xlink="http://www.w3.org/1999/xlink">
    <!-- Generator: Sketch 3.6.1 (26313) - http://www.bohemiancoding.com/sketch -->
    <title>copy</title>
    <desc>Created with Sketch.</desc>
    <defs></defs>
    <g id="Icons" stroke="none" stroke-width="1" fill="none" fill-rule="evenodd">
        <g id="copy" fill="#000000">
            <path d="M4,2 L10,2 L10,1 L3,1 C2.44386482,1 2,1.44771525 2,2 L2,11 L3,11 L3,3 L3,2 L4,2 Z M4,4.00247329 C4,3.44882258 4.4463114,3 4.99754465,3 L12.0024554,3 C12.553384,3 13,3.45576096 13,4.00247329 L13,13.9975267 C13,14.5511774 12.5536886,15 12.0024554,15 L4.99754465,15 C4.44661595,15 4,14.544239 4,13.9975267 L4,4.00247329 Z M5,4 L12,4 L12,14 L5,14 L5,4 Z"></path>
        </g>
    </g>
</svg>