<?xml version="1.0" encoding="UTF-8" standalone="no"?>
<svg width="16px" height="16px" viewBox="0 0 16 16" version="1.1" xmlns="http://www.w3.org/2000/svg" xmlns:xlink="http://www.w3.org/1999/xlink">
    <!-- Generator: Sketch 3.6.1 (26313) - http://www.bohemiancoding.com/sketch -->
    <title>date</title>
    <desc>Created with Sketch.</desc>
    <defs></defs>
    <g id="Icons" stroke="none" stroke-width="1" fill="none" fill-rule="evenodd">
        <g id="date" fill="#000000">
            <path d="M11,3 L12.9975267,3 C13.5511774,3 14,3.41778088 14,3.91893385 L14,13.0810661 C14,13.5885793 13.544239,14 12.9975267,14 L3.00247329,14 C2.44882258,14 2,13.5822191 2,13.0810661 L2,3.91893385 C2,3.4114207 2.45576096,3 3.00247329,3 L5,3 L5,2.49538898 C5,2.2157526 5.22385763,2 5.5,2 C5.76806641,2 6,2.2217932 6,2.49538898 L6,3 L10,3 L10,2.49538898 C10,2.2157526 10.2238576,2 10.5,2 C10.7680664,2 11,2.2217932 11,2.49538898 L11,3 Z M10,4 L6,4 L6,4.50461102 C6,4.7842474 5.77614237,5 5.5,5 C5.23193359,5 5,4.7782068 5,4.50461102 L5,4 L3.00247329,4 C3.00458454,4 3,4.00410645 3,4.00222597 L3,12.997774 C3,12.9958739 3.00456273,13 3.00247329,13 L12.9975267,13 C12.9954155,13 13,12.9958935 13,12.997774 L13,4.00222597 C13,4.00412609 12.9954373,4 12.9975267,4 L11,4 L11,4.50461102 C11,4.7842474 10.7761424,5 10.5,5 C10.2319336,5 10,4.7782068 10,4.50461102 L10,4 Z M3,6 L3,7 L13,7 L13,6.40317993 L13,6 L3,6 Z"></path>
        </g>
    </g>
</svg>