<?xml version="1.0" encoding="utf-8"?>
<!-- Generator: Adobe Illustrator 16.0.1, SVG Export Plug-In . SVG Version: 6.00 Build 0)  -->
<!DOCTYPE svg PUBLIC "-//W3C//DTD SVG 1.1//EN" "http://www.w3.org/Graphics/SVG/1.1/DTD/svg11.dtd">
<svg version="1.1" id="Layer_1" xmlns="http://www.w3.org/2000/svg" xmlns:xlink="http://www.w3.org/1999/xlink" x="0px" y="0px"
	 width="16px" height="16px" viewBox="0 0 16 16" enable-background="new 0 0 16 16" xml:space="preserve">
<title>file</title>
<desc>Created with Sketch.</desc>
<path d="M12.867,3.896l-2.5-2.75C10.281,1.053,10.166,1,10.045,1H4.136C3.509,1,3,1.56,3,2.25v11.5C3,14.44,3.509,15,4.136,15h7.727
	C12.491,15,13,14.44,13,13.75v-9.5C13,4.117,12.952,3.99,12.867,3.896z M12.001,4H10.25C10.111,4,10,3.888,10,3.75V2L12.001,4z
	 M11.863,14H4.136c-0.125,0-0.227-0.111-0.227-0.25V2.25C3.909,2.112,4.011,2,4.136,2H9v1.75C9,4.44,9.56,5,10.25,5h1.76l0.081,8.75
	C12.091,13.889,11.989,14,11.863,14z"/>
</svg>
