<?xml version="1.0" encoding="UTF-8" standalone="no"?>
<svg width="16px" height="16px" viewBox="0 0 16 16" version="1.1" xmlns="http://www.w3.org/2000/svg" xmlns:xlink="http://www.w3.org/1999/xlink">
    <!-- Generator: Sketch 3.8.3 (29802) - http://www.bohemiancoding.com/sketch -->
    <title>financial_settings_icon</title>
    <desc>Created with Sketch.</desc>
    <defs></defs>
    <g id="Financials-Tab" stroke="none" stroke-width="1" fill="none" fill-rule="evenodd">
        <g id="financial_settings_icon">
            <path d="M5.07403974,8.39450123 C6.97522974,8.16531674 8.44840114,6.55118044 8.44840114,4.59402622 C8.44840114,2.636872 6.97522974,1.0227357 5.07403974,0.793551206 L5.07403974,1.77061427 C5.90570053,1.93810481 6.43741809,2.56021253 6.43741809,3.416807 L5.57394513,3.416807 C5.57394513,2.90954994 5.34217081,2.48843087 4.61958029,2.48843087 C3.99242625,2.48843087 3.66521545,2.86648094 3.66521545,3.26367279 C3.66521545,3.82356974 4.14694247,3.91927862 4.87407758,4.16333626 L4.87407758,4.16333626 C6.10111809,4.57488444 6.52830997,5.05342884 6.52830997,5.94830687 C6.52830997,6.71876335 6.00113701,7.29301663 5.07403974,7.4317945 L5.07403974,8.39450123 Z M4.16512084,0.790880338 C2.25295894,1.0098912 0.768036468,2.62908168 0.768036468,4.59402622 C0.768036468,6.55897076 2.25295894,8.17816124 4.16512084,8.3971721 L4.16512084,7.41743817 C3.31528168,7.24516219 2.68812764,6.61348358 2.68812764,5.71382011 L3.59704653,5.71382011 C3.59704653,6.29764428 4.07422895,6.69962157 4.61958029,6.69962157 C5.33762622,6.69962157 5.64211405,6.38378227 5.64211405,5.95309231 C5.64211405,5.45062069 5.47396405,5.2448466 4.61958029,4.95293452 C3.61068032,4.60838255 2.8017425,4.34518313 2.8017425,3.26845824 C2.8017425,2.43100554 3.44707492,1.92853392 4.16512084,1.77539972 L4.16512084,0.790880338 Z M4.60821881,9.18805244 C7.15326778,9.18805244 9.21643761,7.13123684 9.21643761,4.59402622 C9.21643761,2.0568156 7.15326778,0 4.60821881,0 C2.06316984,0 0,2.0568156 0,4.59402622 C0,7.13123684 2.06316984,9.18805244 4.60821881,9.18805244 Z" id="icon" fill-opacity="0.7" fill="#23282B"></path>
            <path d="M9.91312765,4.41724206 L10.2285846,3.67853594 C10.3127065,3.45282018 10.5019806,3.28866326 10.7333157,3.18606519 C10.9646508,3.08346712 11.2170164,3.10398673 11.427321,3.18606519 L12.2475091,3.51437902 C12.4788442,3.59645748 12.6470879,3.78113401 12.7522402,4.00684977 C12.8363621,4.23256553 12.8363621,4.4788009 12.7522402,4.68399705 L12.5629661,5.13542857 C12.9415144,5.42270317 13.2780018,5.75101701 13.5724283,6.12037007 L14.0350985,5.93569354 C14.2664336,5.85361508 14.5187992,5.85361508 14.7291038,5.93569354 C14.9394085,6.017772 15.1286826,6.20244853 15.2338349,6.42816429 L15.5703224,7.22842925 C15.7595965,7.67986077 15.5492919,8.21337075 15.0655912,8.39804728 L14.602921,8.58272381 C14.6660124,9.05467495 14.6660124,9.52662608 14.602921,9.9780576 L15.0655912,10.1627341 C15.2969263,10.2448126 15.46517,10.4294891 15.5703224,10.6552049 C15.6544442,10.8809206 15.6544442,11.127156 15.5703224,11.3323522 L15.2338349,12.1326171 C15.1497131,12.3583329 14.9604389,12.5224898 14.7291038,12.6250879 C14.4977687,12.7276859 14.2454032,12.7071663 14.0350985,12.6250879 L13.5724283,12.4404113 C13.2780018,12.8097644 12.9415144,13.1380782 12.5629661,13.4253528 L12.7522402,13.8767844 C12.8363621,14.1025001 12.8363621,14.3487355 12.7522402,14.5539316 C12.6681184,14.7796474 12.4788442,14.9438043 12.2475091,15.0464024 L11.427321,15.3747162 C11.3221687,15.4157555 11.1959859,15.4362751 11.0698031,15.4362751 C10.9436204,15.4362751 10.8384681,15.4157555 10.7122853,15.3747162 C10.4809502,15.2926378 10.3127065,15.1079612 10.2075541,14.8822455 L10.01828,14.430814 C9.53457931,14.4923728 9.05087864,14.4923728 8.58820844,14.430814 L8.39893427,14.8822455 C8.2096601,15.333677 7.66286804,15.5593928 7.20019784,15.3747162 L6.38000976,15.0464024 C5.91733956,14.8617259 5.68600446,14.3282159 5.87527864,13.8767844 L6.06455281,13.4253528 C5.68600446,13.1380782 5.34951705,12.8097644 5.05509056,12.4404113 L4.59242036,12.6250879 C4.36108526,12.7071663 4.10871969,12.7071663 3.89841506,12.6250879 C3.66707996,12.5430094 3.49883625,12.3583329 3.39368393,12.1326171 L3.05719651,11.3323522 C2.86792234,10.8809206 3.07822698,10.3474107 3.56192764,10.1627341 L4.31902433,9.85493991 C4.52932897,9.77286146 4.76066407,9.87545953 4.82375546,10.0601361 C4.90787731,10.2653322 4.80272499,10.491048 4.61345082,10.5526068 L3.85635413,10.860401 C3.79326274,10.8809206 3.75120181,10.9629991 3.79326274,11.0245579 L4.12975016,11.8248229 C4.15078062,11.8658621 4.17181108,11.8863818 4.19284155,11.8863818 C4.21387201,11.8863818 4.25593294,11.9069014 4.29799387,11.8863818 L5.05509056,11.5785875 C5.22333426,11.5170287 5.4336389,11.5580679 5.53879122,11.7222248 C5.87527864,12.2146956 6.29588791,12.6250879 6.77958857,12.9534017 C6.92680182,13.0559998 6.98989321,13.2406763 6.92680182,13.4253528 L6.61134486,14.164059 C6.5903144,14.2256178 6.61134486,14.3076963 6.67443625,14.3282159 L7.49462434,14.6565297 C7.55771573,14.6770493 7.64183758,14.6565297 7.66286804,14.5949709 L7.978325,13.8562647 C8.04141639,13.6921078 8.23069056,13.5895098 8.41996473,13.630549 C9.00881772,13.7536667 9.5976707,13.7536667 10.1865237,13.630549 C10.3757979,13.5895098 10.565072,13.6921078 10.6281634,13.8562647 L10.9436204,14.5949709 C10.9646508,14.6565297 11.0487727,14.6975689 11.1118641,14.6565297 L11.9320522,14.3282159 C11.9741131,14.3076963 11.9951435,14.2871767 11.9951435,14.266657 C11.9951435,14.2461374 12.016174,14.2050982 11.9951435,14.164059 L11.6796866,13.4253528 C11.6165952,13.2611959 11.6586561,13.0559998 11.8268998,12.9534017 C12.331631,12.6250879 12.7522402,12.2146956 13.0887277,11.7427445 C13.19388,11.5991071 13.3831541,11.5375483 13.5724283,11.5991071 L14.329525,11.9069014 C14.3715859,11.927421 14.4136469,11.9069014 14.4346773,11.9069014 C14.4557078,11.9069014 14.4977687,11.8863818 14.4977687,11.8453425 L14.8342561,11.0450776 C14.8552866,11.0040383 14.8342561,10.9629991 14.8342561,10.9424795 C14.8342561,10.9219599 14.8132257,10.8809206 14.7711647,10.8809206 L14.0140681,10.5731264 C13.8458243,10.5115676 13.740672,10.326891 13.782733,10.1422145 C13.9089157,9.56766531 13.9089157,8.9931161 13.782733,8.4185669 C13.740672,8.23389037 13.8458243,8.04921383 14.0140681,7.98765499 L14.7711647,7.67986077 C14.8342561,7.65934116 14.8763171,7.5772627 14.8342561,7.51570386 L14.4977687,6.71543889 C14.4767383,6.67439966 14.4557078,6.65388005 14.4346773,6.65388005 C14.4136469,6.65388005 14.3715859,6.63336043 14.329525,6.65388005 L13.5724283,6.96167426 C13.4041846,7.02323311 13.19388,6.98219388 13.0887277,6.81803696 C12.7522402,6.32556621 12.331631,5.91517392 11.8479303,5.58686009 C11.7007171,5.48426202 11.6376257,5.29958549 11.7007171,5.11490896 L12.016174,4.37620283 C12.0372045,4.3351636 12.016174,4.29412437 12.016174,4.27360476 C12.016174,4.25308514 11.9951435,4.21204592 11.9530826,4.21204592 L11.1328945,3.88373208 C11.0908336,3.86321247 11.0487727,3.88373208 11.0277422,3.88373208 C11.0067118,3.88373208 10.9646508,3.9042517 10.9646508,3.94529093 L10.6491939,4.68399705 C10.565072,4.8891932 10.3337369,4.97127165 10.1444628,4.8891932 C9.91312765,4.82763435 9.8290058,4.60191859 9.91312765,4.41724206 L9.91312765,4.41724206 Z M9.30324421,11.4759895 C8.69336076,11.4759895 8.14656871,11.2502737 7.72595943,10.8398814 C7.41050248,10.5320872 7.20019784,10.1627341 7.11607599,9.75234184 C7.07401506,9.5471457 6.86371043,9.40350839 6.65340579,9.46506724 C6.44310115,9.50610647 6.29588791,9.71130261 6.3589793,9.91649876 C6.48516208,10.4705283 6.75855811,10.9835187 7.17916738,11.393911 C7.7469899,11.9479406 8.50408659,12.2557348 9.32427467,12.2557348 C10.1444628,12.2557348 10.9015594,11.9479406 11.469382,11.393911 C12.0372045,10.8398814 12.3526614,10.1011753 12.3526614,9.30091032 C12.3526614,8.50064535 12.0372045,7.76193923 11.469382,7.20790964 C11.0277422,6.77699773 10.4599197,6.48972313 9.8290058,6.38712506 C9.61870116,6.34608583 9.40839652,6.48972313 9.3663356,6.69491927 C9.32427467,6.90011542 9.47148792,7.10531157 9.68179255,7.14635079 C10.1444628,7.22842925 10.565072,7.4336254 10.9015594,7.76193923 C11.3221687,8.17233152 11.5535038,8.72636111 11.5535038,9.30091032 C11.5535038,9.87545953 11.3221687,10.4294891 10.9015594,10.8398814 C10.4809502,11.2502737 9.91312765,11.4759895 9.30324421,11.4759895 L9.30324421,11.4759895 Z" id="Shape" fill="#5F6365"></path>
        </g>
    </g>
</svg>