<?xml version="1.0" encoding="UTF-8" standalone="no"?>
<svg width="16px" height="16px" viewBox="0 0 16 16" version="1.1" xmlns="http://www.w3.org/2000/svg" xmlns:xlink="http://www.w3.org/1999/xlink" xmlns:sketch="http://www.bohemiancoding.com/sketch/ns">
    <!-- Generator: Sketch 3.5.1 (25234) - http://www.bohemiancoding.com/sketch -->
    <title>money-circle-o</title>
    <desc>Created with Sketch.</desc>
    <defs></defs>
    <g id="Icons" stroke="none" stroke-width="1" fill="none" fill-rule="evenodd" sketch:type="MSPage">
        <g id="money-circle-o" sketch:type="MSArtboardGroup" fill="#000000">
            <path d="M8.60650888,12.9635873 C11.0818991,12.6642623 13,10.5561294 13,8 C13,5.44387064 11.0818991,3.33573774 8.60650888,3.03641273 L8.60650888,4.3125 C9.68934911,4.53125 10.3816568,5.34375 10.3816568,6.4625 L9.25739645,6.4625 C9.25739645,5.8 8.9556213,5.25 8.0147929,5.25 C7.19822485,5.25 6.77218935,5.74375 6.77218935,6.2625 C6.77218935,6.99375 7.39940828,7.11875 8.34615385,7.4375 L8.34615385,7.4375 C9.94378698,7.975 10.5,8.6 10.5,9.76875 C10.5,10.775 9.81360947,11.525 8.60650888,11.70625 L8.60650888,12.9635873 Z M7.42307692,3.03292445 C4.933401,3.31896226 3,5.43369613 3,8 C3,10.5663039 4.933401,12.6810377 7.42307692,12.9670755 L7.42307692,11.6875 C6.31656805,11.4625 5.5,10.6375 5.5,9.4625 L6.68343195,9.4625 C6.68343195,10.225 7.30473373,10.75 8.0147929,10.75 C8.94970414,10.75 9.34615385,10.3375 9.34615385,9.775 C9.34615385,9.11875 9.12721893,8.85 8.0147929,8.46875 C6.70118343,8.01875 5.64792899,7.675 5.64792899,6.26875 C5.64792899,5.175 6.48816568,4.51875 7.42307692,4.31875 L7.42307692,3.03292445 Z M8,14 C11.3137085,14 14,11.3137085 14,8 C14,4.6862915 11.3137085,2 8,2 C4.6862915,2 2,4.6862915 2,8 C2,11.3137085 4.6862915,14 8,14 Z" sketch:type="MSShapeGroup"></path>
        </g>
    </g>
</svg>