<?xml version="1.0" encoding="UTF-8" standalone="no"?>
<svg width="16px" height="16px" viewBox="0 0 16 16" version="1.1" xmlns="http://www.w3.org/2000/svg" xmlns:xlink="http://www.w3.org/1999/xlink">
    <!-- Generator: Sketch 3.7.2 (28276) - http://www.bohemiancoding.com/sketch -->
    <title>money-request</title>
    <desc>Created with Sketch.</desc>
    <defs></defs>
    <g id="Icons" stroke="none" stroke-width="1" fill="none" fill-rule="evenodd">
        <g id="money-request" fill="#000000">
            <path d="M4.7,7.26875 C3.46923077,6.854375 2.65384615,6.691875 2.65384615,5.74125 C2.65384615,5.066875 3.20769231,4.425 4.26923077,4.425 C5.49230769,4.425 5.88461538,5.14 5.88461538,6.00125 L7.34615385,6.00125 C7.34615385,4.546875 6.44615385,3.490625 5.03846154,3.20625 L5.03846154,1.5 L3.5,1.5 L3.5,3.214375 C2.28461538,3.474375 1.19230769,4.3275 1.19230769,5.749375 C1.19230769,7.5775 2.56153846,8.024375 4.26923077,8.609375 C5.71538462,9.105 6,9.454375 6,10.3075 C6,11.03875 5.48461538,11.575 4.26923077,11.575 C3.34615385,11.575 2.53846154,10.8925 2.53846154,9.90125 L1,9.90125 C1,11.42875 2.06153846,12.50125 3.5,12.79375 L3.5,14.5 L5.03846154,14.5 L5.03846154,12.818125 C6.60769231,12.5825 7.5,11.6075 7.5,10.299375 C7.5,8.78 6.77692308,7.9675 4.7,7.26875 L4.7,7.26875 Z M14.7428571,6.32857143 L14.7428571,9.67142857 L11.4,9.67142857 L11.4,11.9 L7.5,8 L11.4,4.1 L11.4,6.32857143 L14.7428571,6.32857143 Z"></path>
        </g>
    </g>
</svg>