<?xml version="1.0" encoding="UTF-8" standalone="no"?>
<svg width="16px" height="16px" viewBox="0 0 16 16" version="1.1" xmlns="http://www.w3.org/2000/svg" xmlns:xlink="http://www.w3.org/1999/xlink">
    <!-- Generator: Sketch 3.6.1 (26313) - http://www.bohemiancoding.com/sketch -->
    <title>money-send</title>
    <desc>Created with Sketch.</desc>
    <defs></defs>
    <g id="Icons" stroke="none" stroke-width="1" fill="none" fill-rule="evenodd">
        <g id="money-send" fill="#000000">
            <path d="M5.84615385,7.4375 C4.89940828,7.11875 4.27218935,6.99375 4.27218935,6.2625 C4.27218935,5.74375 4.69822485,5.25 5.5147929,5.25 C6.4556213,5.25 6.75739645,5.8 6.75739645,6.4625 L7.8816568,6.4625 C7.8816568,5.34375 7.18934911,4.53125 6.10650888,4.3125 L6.10650888,3 L4.92307692,3 L4.92307692,4.31875 C3.98816568,4.51875 3.14792899,5.175 3.14792899,6.26875 C3.14792899,7.675 4.20118343,8.01875 5.5147929,8.46875 C6.62721893,8.85 6.84615385,9.11875 6.84615385,9.775 C6.84615385,10.3375 6.44970414,10.75 5.5147929,10.75 C4.80473373,10.75 4.18343195,10.225 4.18343195,9.4625 L3,9.4625 C3,10.6375 3.81656805,11.4625 4.92307692,11.6875 L4.92307692,13 L6.10650888,13 L6.10650888,11.70625 C7.31360947,11.525 8,10.775 8,9.76875 C8,8.6 7.44378698,7.975 5.84615385,7.4375 L5.84615385,7.4375 Z M9,6.71428571 L9,9.28571429 L11.5714286,9.28571429 L11.5714286,11 L14.5714286,8 L11.5714286,5 L11.5714286,6.71428571 L9,6.71428571 Z"></path>
        </g>
    </g>
</svg>