<?xml version="1.0" encoding="UTF-8" standalone="no"?>
<svg width="16px" height="16px" viewBox="0 0 16 16" version="1.1" xmlns="http://www.w3.org/2000/svg" xmlns:xlink="http://www.w3.org/1999/xlink">
    <!-- Generator: Sketch 3.6.1 (26313) - http://www.bohemiancoding.com/sketch -->
    <title>three-circle</title>
    <desc>Created with Sketch.</desc>
    <defs></defs>
    <g id="Icons" stroke="none" stroke-width="1" fill="none" fill-rule="evenodd">
        <g id="three-circle" fill="#000000">
            <path d="M8,2 C4.688,2 2,4.688 2,8 C2,11.312 4.688,14 8,14 C11.312,14 14,11.312 14,8 C14,4.688 11.312,2 8,2 L8,2 Z M10.0018749,6.39453125 C10.0018749,6.75651223 9.89640723,7.0579415 9.68546867,7.29882812 C9.47453012,7.53971475 9.17765809,7.7018225 8.79484367,7.78515625 L8.79484367,7.81640625 C9.2531793,7.8736982 9.59692586,8.0162749 9.82609367,8.24414062 C10.0552615,8.47200635 10.1698437,8.7747377 10.1698437,9.15234375 C10.1698437,9.70182566 9.9758352,10.1256496 9.58781242,10.4238281 C9.19978965,10.7220067 8.64771184,10.8710938 7.93156242,10.8710938 C7.29874676,10.8710938 6.76489793,10.7682302 6.32999992,10.5625 L6.32999992,9.74609375 C6.57218863,9.86588602 6.82869649,9.95833301 7.09953117,10.0234375 C7.37036586,10.088542 7.63077992,10.1210938 7.88078117,10.1210938 C8.32349172,10.1210938 8.65421758,10.0390633 8.87296867,9.875 C9.09171977,9.71093668 9.20109367,9.45703297 9.20109367,9.11328125 C9.20109367,8.80859223 9.08000113,8.58463613 8.83781242,8.44140625 C8.59562371,8.29817637 8.21541918,8.2265625 7.69718742,8.2265625 L7.20109367,8.2265625 L7.20109367,7.48046875 L7.70499992,7.48046875 C8.61646281,7.48046875 9.07218742,7.16536773 9.07218742,6.53515625 C9.07218742,6.29036336 8.99276113,6.10156316 8.83390617,5.96875 C8.67505121,5.83593684 8.44067856,5.76953125 8.13078117,5.76953125 C7.91463426,5.76953125 7.70630301,5.8001299 7.50578117,5.86132812 C7.30525934,5.92252635 7.06828254,6.04166578 6.79484367,6.21875 L6.34562492,5.578125 C6.86906504,5.19270641 7.47713188,5 8.16984367,5 C8.74536738,5 9.19458164,5.12369668 9.51749992,5.37109375 C9.8404182,5.61849082 10.0018749,5.95963324 10.0018749,6.39453125 L10.0018749,6.39453125 Z"></path>
        </g>
    </g>
</svg>