<?xml version="1.0" encoding="UTF-8" standalone="no"?>
<svg width="16px" height="16px" viewBox="0 0 16 16" version="1.1" xmlns="http://www.w3.org/2000/svg" xmlns:xlink="http://www.w3.org/1999/xlink">
    <!-- Generator: Sketch 3.6.1 (26313) - http://www.bohemiancoding.com/sketch -->
    <title>five-circle</title>
    <desc>Created with Sketch.</desc>
    <defs></defs>
    <g id="Icons" stroke="none" stroke-width="1" fill="none" fill-rule="evenodd">
        <g id="five-circle" fill="#000000">
            <path d="M8,2 C4.688,2 2,4.688 2,8 C2,11.312 4.688,14 8,14 C11.312,14 14,11.312 14,8 C14,4.688 11.312,2 8,2 L8,2 Z M8.16203117,7.14453125 C8.73755488,7.14453125 9.19327949,7.29687348 9.52921867,7.6015625 C9.86515785,7.90625152 10.0331249,8.32161195 10.0331249,8.84765625 C10.0331249,9.4570343 9.84237162,9.932941 9.4608593,10.2753906 C9.07934697,10.6178403 8.53703469,10.7890625 7.83390617,10.7890625 C7.19588215,10.7890625 6.69458508,10.6861989 6.32999992,10.4804688 L6.32999992,9.6484375 C6.54093848,9.76822977 6.78312356,9.86067676 7.05656242,9.92578125 C7.33000129,9.99088574 7.583905,10.0234375 7.81828117,10.0234375 C8.23234574,10.0234375 8.54744676,9.93099051 8.76359367,9.74609375 C8.97974059,9.56119699 9.08781242,9.29036637 9.08781242,8.93359375 C9.08781242,8.25129867 8.65292094,7.91015625 7.78312492,7.91015625 C7.66072848,7.91015625 7.50968832,7.92252592 7.32999992,7.94726562 C7.15031153,7.97200533 6.99276102,7.99999984 6.85734367,8.03125 L6.44718742,7.7890625 L6.66593742,5 L9.63468742,5 L9.63468742,5.81640625 L7.47453117,5.81640625 L7.34562492,7.23046875 C7.43677121,7.21484367 7.54809822,7.19661469 7.6796093,7.17578125 C7.81112037,7.15494781 7.97192606,7.14453125 8.16203117,7.14453125 L8.16203117,7.14453125 Z"></path>
        </g>
    </g>
</svg>