<?xml version="1.0" encoding="UTF-8" standalone="no"?>
<svg width="16px" height="16px" viewBox="0 0 16 16" version="1.1" xmlns="http://www.w3.org/2000/svg" xmlns:xlink="http://www.w3.org/1999/xlink">
    <!-- Generator: Sketch 3.6.1 (26313) - http://www.bohemiancoding.com/sketch -->
    <title>two-circle</title>
    <desc>Created with Sketch.</desc>
    <defs></defs>
    <g id="Icons" stroke="none" stroke-width="1" fill="none" fill-rule="evenodd">
        <g id="two-circle" fill="#000000">
            <path d="M8,2 C4.688,2 2,4.688 2,8 C2,11.312 4.688,14 8,14 C11.312,14 14,11.312 14,8 C14,4.688 11.312,2 8,2 L8,2 Z M9.87109375,10.7929688 L6,10.7929688 L6,10.0976562 L7.47265625,8.6171875 C7.90755426,8.17187277 8.19596283,7.85612072 8.33789062,7.66992188 C8.47981842,7.48372303 8.58333301,7.30859457 8.6484375,7.14453125 C8.71354199,6.98046793 8.74609375,6.80468844 8.74609375,6.6171875 C8.74609375,6.35937371 8.66862057,6.15625074 8.51367188,6.0078125 C8.35872318,5.85937426 8.14453262,5.78515625 7.87109375,5.78515625 C7.65234266,5.78515625 7.44075623,5.82552043 7.23632812,5.90625 C7.03190002,5.98697957 6.79557426,6.13281145 6.52734375,6.34375 L6.03125,5.73828125 C6.34895992,5.47005074 6.65755059,5.27994848 6.95703125,5.16796875 C7.25651191,5.05598902 7.57551914,5 7.9140625,5 C8.44531516,5 8.87109215,5.13867049 9.19140625,5.41601562 C9.51172035,5.69336076 9.671875,6.06640391 9.671875,6.53515625 C9.671875,6.79297004 9.6256515,7.03775926 9.53320312,7.26953125 C9.44075475,7.50130324 9.29882908,7.74023314 9.10742188,7.98632812 C8.91601467,8.23242311 8.59765848,8.56510207 8.15234375,8.984375 L7.16015625,9.9453125 L7.16015625,9.984375 L9.87109375,9.984375 L9.87109375,10.7929688 Z"></path>
        </g>
    </g>
</svg>