<?xml version="1.0" encoding="UTF-8" standalone="no"?>
<svg width="16px" height="16px" viewBox="0 0 16 16" version="1.1" xmlns="http://www.w3.org/2000/svg" xmlns:xlink="http://www.w3.org/1999/xlink">
    <!-- Generator: Sketch 3.6.1 (26313) - http://www.bohemiancoding.com/sketch -->
    <title>person-add</title>
    <desc>Created with Sketch.</desc>
    <defs></defs>
    <g id="Icons" stroke="none" stroke-width="1" fill="none" fill-rule="evenodd">
        <g id="person-add" fill="#000000">
            <path d="M7,9.15384615 C5.42,9.15384615 4.85714286,7.48326923 4.85714286,5.91980769 C4.85714286,4.40326923 5.11678571,3 7,3 C8.88321429,3 9.14285714,4.40326923 9.14285714,5.91980769 C9.14285714,7.48326923 8.58,9.15384615 7,9.15384615 Z M11.9985714,11.8398077 C11.7916071,10.0584615 11.4273214,9.175 8.98964286,8.77115385 C8.97446429,8.76884615 8.85803571,8.75115385 8.68535714,8.7275 C8.25982143,9.24692308 7.68535714,9.53846154 7,9.53846154 C6.31464286,9.53846154 5.74017857,9.24692308 5.31464286,8.7275 C5.14125,8.75115385 5.02428571,8.76903846 5.00857143,8.77153846 C2.5725,9.175 2.20821429,10.0584615 2.00142857,11.8398077 C2.00035714,11.8476923 2,11.8555769 2,11.8636538 C2,12.9180769 5.82714286,13 7,13 C8.17285714,13 12,12.9180769 12,11.8636538 C12,11.8555769 11.9996429,11.8476923 11.9985714,11.8398077 Z M12,5 L10,5 L10,6 L12,6 L12,8 L13,8 L13,6 L15,6 L15,5 L13,5 L13,3 L12,3 L12,5 Z"></path>
        </g>
    </g>
</svg>