<?xml version="1.0" encoding="UTF-8" standalone="no"?>
<svg width="16px" height="16px" viewBox="0 0 16 16" version="1.1" xmlns="http://www.w3.org/2000/svg" xmlns:xlink="http://www.w3.org/1999/xlink">
    <!-- Generator: Sketch 3.6.1 (26313) - http://www.bohemiancoding.com/sketch -->
    <title>persons-two</title>
    <desc>Created with Sketch.</desc>
    <defs></defs>
    <g id="Icons" stroke="none" stroke-width="1" fill="none" fill-rule="evenodd">
        <g id="persons-two" fill="#000000">
            <path d="M12.1972,12.8703636 C11.90964,10.9102727 11.6148,9.78827273 8.89348,9.52318182 L8.81844,9.51772727 C8.2982,10.2404545 7.55088,10.7272727 6.58824,10.7272727 C5.61468,10.7272727 4.86764,10.244 4.35356,9.51772727 L4.2732,9.52372727 C1.57876,9.78636364 1.29876,10.8519091 1.0028,12.8703636 C1.00084,12.8831818 1,12.8962727 1,12.9090909 C1,13.5639091 1.95004,14 6.58684,14 C11.24548,14 12.2,13.5639091 12.2,12.9090909 C12.2,12.8962727 12.19916,12.8831818 12.1972,12.8703636 Z M6.58824,10.1818182 C4.9592,10.1818182 4.08,8.35509091 4.08,6.63636364 C4.08,5.89427273 4.08,3.63636364 6.58824,3.63636364 C8.26824,3.63636364 9.12,4.64572727 9.12,6.63636364 C9.12,8.00709091 8.4326,10.1818182 6.58824,10.1818182 Z M14.97312,9.43890909 C14.748,7.86609091 14.26444,7.09590909 12.22856,6.76727273 C11.77888,7.52654545 11.03492,8.05454545 9.96,8.05454545 C9.79872,8.05454545 9.64752,8.03872727 9.5008,8.01609091 C9.41036,8.36218182 9.288,8.69627273 9.13092,9.00390909 C10.83472,9.20436364 11.67948,9.77027273 12.15044,10.6211818 C13.36032,10.5014545 14.51224,10.2658182 14.87876,9.84227273 C14.951,9.80681818 15,9.73345455 15,9.64945455 L15,9.54172727 C15,9.50463636 14.9902,9.46945455 14.97312,9.43890909 Z M9.96,2 C8.69048,2 8.1302,2.58090909 7.88996,3.32272727 C8.81088,3.68436364 9.68,4.57072727 9.68,6.63636364 C9.68,6.89736364 9.65452,7.18509091 9.60636,7.48127273 C9.71892,7.49763636 9.8354,7.50909091 9.96,7.50909091 C11.6134,7.50909091 12.2,5.97172727 12.2,4.65527273 C12.2,3.419 11.94548,2 9.96,2 Z"></path>
        </g>
    </g>
</svg>