<svg width="12" height="12" viewBox="0 0 12 12" xmlns="http://www.w3.org/2000/svg">
  <title>phone</title>
  <path d="M11.752 9.17L9.82 7.235a.865.865 0 0 0-1.195 0l-.434.434L11.32 10.8l.433-.434A.84.84 0 0 0 12 9.768a.841.841 0 0 0-.248-.598zM7.887 7.973l-.305.304c-.055.056-.165.086-.31.086-.522 0-1.484-.4-2.361-1.277-.507-.508-.92-1.124-1.13-1.69-.197-.524-.172-.871-.06-.983l.305-.305L.897.977l-.379.379C-.776 2.65.433 5.89 3.27 8.729c1.985 1.987 4.315 3.27 5.936 3.271.607 0 1.088-.174 1.43-.518l.38-.379-3.129-3.13zM4.329 3.805l.433-.434a.84.84 0 0 0 .248-.598.84.84 0 0 0-.248-.598L2.83.24a.865.865 0 0 0-1.195 0L1.2.674l3.129 3.131z"/>
</svg>
