<?xml version="1.0" encoding="UTF-8" standalone="no"?>
<svg width="16px" height="16px" viewBox="0 0 16 16" version="1.1" xmlns="http://www.w3.org/2000/svg" xmlns:xlink="http://www.w3.org/1999/xlink">
    <!-- Generator: Sketch 3.6.1 (26313) - http://www.bohemiancoding.com/sketch -->
    <title>post</title>
    <desc>Created with Sketch.</desc>
    <defs></defs>
    <g id="Icons" stroke="none" stroke-width="1" fill="none" fill-rule="evenodd">
        <g id="post" fill="#000000">
            <path d="M2,3.00247329 C2,2.44882258 2.45576096,2 3.00247329,2 L12.9975267,2 C13.5511774,2 14,2.4463114 14,2.99754465 L14,11 L11,14 L2.99189461,14 C2.44408634,14 2,13.544239 2,12.9975267 L2,3.00247329 Z M13,10.3080967 L13,3 L3,3 L3,13 L10.3080967,13 L10.3080967,10.4973712 C10.3080967,10.4447947 10.3264982,10.4001053 10.3633018,10.3633018 C10.4001053,10.3264982 10.4447947,10.3080967 10.4973712,10.3080967 L13,10.3080967 Z M11.25,12.25 L12.25,11.25 L11.25,11.25 L11.25,12.25 Z"></path>
        </g>
    </g>
</svg>