<?xml version="1.0" encoding="utf-8"?>
<!-- Generator: Adobe Illustrator 16.0.1, SVG Export Plug-In . SVG Version: 6.00 Build 0)  -->
<!DOCTYPE svg PUBLIC "-//W3C//DTD SVG 1.1//EN" "http://www.w3.org/Graphics/SVG/1.1/DTD/svg11.dtd">
<svg version="1.1" id="Layer_2" xmlns="http://www.w3.org/2000/svg" xmlns:xlink="http://www.w3.org/1999/xlink" x="0px" y="0px"
	 width="64px" height="64px" viewBox="0 0 64 64" enable-background="new 0 0 64 64" xml:space="preserve">
<g>
	<g>
		<path d="M30.273,14.286H1.044C0.467,14.286,0,13.819,0,13.242s0.467-1.044,1.044-1.044h29.229c0.576,0,1.043,0.467,1.043,1.044
			S30.85,14.286,30.273,14.286z"/>
	</g>
	<g>
		<path d="M30.273,22.637H9.396c-0.577,0-1.044-0.467-1.044-1.043c0-0.577,0.468-1.044,1.044-1.044h20.878
			c0.576,0,1.043,0.467,1.043,1.044C31.317,22.17,30.85,22.637,30.273,22.637z"/>
	</g>
	<g>
		<path d="M30.273,30.988H17.747c-0.577,0-1.044-0.467-1.044-1.042c0-0.578,0.467-1.044,1.044-1.044h12.526
			c0.576,0,1.043,0.467,1.043,1.044C31.317,30.521,30.85,30.988,30.273,30.988z"/>
	</g>
	<g id="money-request">
		<g>
			<path fill="#010101" d="M49.67,31.046c-1.659-0.558-2.761-0.778-2.761-2.061c0-0.91,0.747-1.776,2.181-1.776
				c1.648,0,2.181,0.964,2.181,2.127h1.971c0-1.962-1.214-3.387-3.113-3.771v-2.301h-2.076v2.313
				c-1.64,0.351-3.112,1.501-3.112,3.419c0,2.466,1.848,3.07,4.15,3.859c1.949,0.669,2.334,1.142,2.334,2.292
				c0,0.986-0.695,1.709-2.334,1.709c-1.245,0-2.335-0.92-2.335-2.256h-2.077c0,2.059,1.434,3.508,3.374,3.9v2.303h2.076v-2.27
				c2.116-0.316,3.32-1.633,3.32-3.396C53.448,33.083,52.471,31.987,49.67,31.046L49.67,31.046z"/>
		</g>
	</g>
	<g>
		<g>
			<rect x="34.449" y="16.374" width="29.229" height="2.088"/>
		</g>
		<g>
			<path d="M51.15,14.286h-4.174c-0.289,0-0.522-0.233-0.522-0.521c0-0.29,0.233-0.522,0.522-0.522h4.174
				c0.289,0,0.522,0.233,0.522,0.522C51.673,14.053,51.439,14.286,51.15,14.286z"/>
		</g>
		<g>
			<path d="M49.063,51.867c-0.406,0-0.813-0.168-1.107-0.459c-0.291-0.293-0.458-0.699-0.458-1.105c0-0.41,0.167-0.816,0.458-1.111
				c0.587-0.582,1.629-0.582,2.214,0c0.292,0.295,0.46,0.701,0.46,1.111c0,0.406-0.168,0.812-0.46,1.105
				C49.879,51.699,49.47,51.867,49.063,51.867z"/>
		</g>
		<g>
			<rect x="34.449" y="45.604" width="29.229" height="2.09"/>
		</g>
		<g>
			<path d="M60.72,11.154c0.48,0,0.871,0.422,0.871,0.941v39.876c0,0.52-0.391,0.941-0.871,0.941H37.406
				c-0.479,0-0.87-0.422-0.87-0.941V12.095c0-0.519,0.391-0.941,0.87-0.941H60.72 M60.72,9.066H37.406
				c-1.634,0-2.957,1.356-2.957,3.028v39.876c0,1.672,1.323,3.029,2.957,3.029H60.72c1.636,0,2.958-1.357,2.958-3.029V12.095
				C63.678,10.423,62.355,9.066,60.72,9.066L60.72,9.066z"/>
		</g>
	</g>
</g>
</svg>
