<?xml version="1.0" encoding="UTF-8" standalone="no"?>
<svg width="16px" height="16px" viewBox="0 0 16 16" version="1.1" xmlns="http://www.w3.org/2000/svg" xmlns:xlink="http://www.w3.org/1999/xlink" xmlns:sketch="http://www.bohemiancoding.com/sketch/ns">
    <!-- Generator: Sketch 3.4.4 (17249) - http://www.bohemiancoding.com/sketch -->
    <title>question-circle-o</title>
    <desc>Created with Sketch.</desc>
    <defs></defs>
    <g id="Icons" stroke="none" stroke-width="1" fill="none" fill-rule="evenodd" sketch:type="MSPage">
        <g id="question-circle-o" sketch:type="MSArtboardGroup" fill="#000000">
            <path d="M8,14 C11.3137085,14 14,11.3137085 14,8 C14,4.6862915 11.3137085,2 8,2 C4.6862915,2 2,4.6862915 2,8 C2,11.3137085 4.6862915,14 8,14 Z M8,13 C10.7614237,13 13,10.7614237 13,8 C13,5.23857625 10.7614237,3 8,3 C5.23857625,3 3,5.23857625 3,8 C3,10.7614237 5.23857625,13 8,13 Z M7.32096771,10.965132 C7.32096771,10.7490019 7.39435407,10.5707778 7.54112899,10.4304546 C7.68790391,10.2901313 7.87580526,10.2199707 8.10483865,10.2199707 C8.33387205,10.2199707 8.52177339,10.2901313 8.66854832,10.4304546 C8.81532324,10.5707778 8.8887096,10.7490019 8.8887096,10.965132 C8.8887096,11.1780363 8.81693613,11.3538409 8.67338703,11.4925513 C8.52983792,11.6312617 8.3403237,11.7006158 8.10483865,11.7006158 C7.86935361,11.7006158 7.67983938,11.6312617 7.53629028,11.4925513 C7.39274118,11.3538409 7.32096771,11.1780363 7.32096771,10.965132 L7.32096771,10.965132 Z M7.46129028,9.47903213 C7.46129028,9.02741698 7.51612844,8.66774316 7.62580641,8.3999999 C7.73548437,8.13225663 7.93628881,7.8685496 8.22822575,7.60887089 C8.52016268,7.34919217 8.71451557,7.13790397 8.81129025,6.97499993 C8.90806492,6.8120959 8.95645153,6.64032343 8.95645153,6.45967737 C8.95645153,5.91451337 8.70484115,5.64193545 8.20161284,5.64193545 C7.96290198,5.64193545 7.77177486,5.71532181 7.62822576,5.86209674 C7.48467666,6.00887166 7.40967741,6.21128899 7.40322577,6.46935479 L6,6.46935479 C6.00645164,5.85322269 6.2056432,5.37096946 6.59758063,5.02258063 C6.98951806,4.6741918 7.52419012,4.5 8.20161284,4.5 C8.88548721,4.5 9.41612705,4.66532092 9.79354829,4.99596773 C10.1709695,5.32661453 10.3596773,5.79354534 10.3596773,6.39677414 C10.3596773,6.67096906 10.2983876,6.92983743 10.1758063,7.17338703 C10.0532251,7.41693662 9.83871111,7.68709521 9.53225797,7.98387088 L9.1403225,8.35645151 C8.89515999,8.59193655 8.75483881,8.86774024 8.71935477,9.18387084 L8.69999993,9.47903213 L7.46129028,9.47903213 Z" id="icon" sketch:type="MSShapeGroup"></path>
        </g>
    </g>
</svg>