<?xml version="1.0" encoding="UTF-8" standalone="no"?>
<svg width="16px" height="16px" viewBox="0 0 16 16" version="1.1" xmlns="http://www.w3.org/2000/svg" xmlns:xlink="http://www.w3.org/1999/xlink">
    <!-- Generator: Sketch 3.6.1 (26313) - http://www.bohemiancoding.com/sketch -->
    <title>search</title>
    <desc>Created with Sketch.</desc>
    <defs></defs>
    <g id="Icons" stroke="none" stroke-width="1" fill="none" fill-rule="evenodd">
        <g id="search" fill="#000000">
            <path d="M9.41702991,10.3966217 C8.64418357,10.9681823 7.68808747,11.3061224 6.65306122,11.3061224 C4.08324647,11.3061224 2,9.22287598 2,6.65306122 C2,4.08324647 4.08324647,2 6.65306122,2 C9.22287598,2 11.3061224,4.08324647 11.3061224,6.65306122 C11.3061224,7.68808747 10.9681823,8.64418357 10.3966217,9.41702991 L14,13.0204082 L13.0204082,14 L9.41702991,10.3966217 L9.41702991,10.3966217 L9.41702991,10.3966217 Z M6.65306122,10.3265306 C8.68186235,10.3265306 10.3265306,8.68186235 10.3265306,6.65306122 C10.3265306,4.6242601 8.68186235,2.97959184 6.65306122,2.97959184 C4.6242601,2.97959184 2.97959184,4.6242601 2.97959184,6.65306122 C2.97959184,8.68186235 4.6242601,10.3265306 6.65306122,10.3265306 L6.65306122,10.3265306 L6.65306122,10.3265306 Z"></path>
        </g>
    </g>
</svg>