<?xml version="1.0" encoding="UTF-8" standalone="no"?>
<svg width="16px" height="16px" viewBox="0 0 16 16" version="1.1" xmlns="http://www.w3.org/2000/svg" xmlns:xlink="http://www.w3.org/1999/xlink">
    <!-- Generator: Sketch 3.6.1 (26313) - http://www.bohemiancoding.com/sketch -->
    <title>times-circle-o</title>
    <desc>Created with Sketch.</desc>
    <defs></defs>
    <g id="Icons" stroke="none" stroke-width="1" fill="none" fill-rule="evenodd">
        <g id="times-circle-o" fill="#000000">
            <path d="M8,14 C11.3137085,14 14,11.3137085 14,8 C14,4.6862915 11.3137085,2 8,2 C4.6862915,2 2,4.6862915 2,8 C2,11.3137085 4.6862915,14 8,14 Z M8,8.84852814 L5.87867966,10.9698485 L5.03015152,10.1213203 L7.15147186,8 L4.98588049,5.83440862 L5.83440862,4.98588049 L8,7.15147186 L10.1213203,5.03015152 L10.9698485,5.87867966 L8.84852814,8 L10.9255774,10.0770493 L10.0770493,10.9255774 L8,8.84852814 Z M8,13 C10.7614237,13 13,10.7614237 13,8 C13,5.23857625 10.7614237,3 8,3 C5.23857625,3 3,5.23857625 3,8 C3,10.7614237 5.23857625,13 8,13 Z"></path>
        </g>
    </g>
</svg>