<?xml version="1.0" encoding="UTF-8" standalone="no"?>
<svg width="16px" height="16px" viewBox="0 0 16 16" version="1.1" xmlns="http://www.w3.org/2000/svg" xmlns:xlink="http://www.w3.org/1999/xlink">
    <!-- Generator: Sketch 3.6.1 (26313) - http://www.bohemiancoding.com/sketch -->
    <title>trash</title>
    <desc>Created with Sketch.</desc>
    <defs></defs>
    <g id="Icons" stroke="none" stroke-width="1" fill="none" fill-rule="evenodd">
        <g id="trash" fill="#000000">
            <path d="M10.5,2.66666667 L12.2808247,2.66666667 C12.6897542,2.66666667 13,2.9651435 13,3.33333333 L13,4 L3,4 L3,3.33333333 C3,2.96257655 3.32198577,2.66666667 3.71917534,2.66666667 L5.5,2.66666667 C5.5,2.29590988 5.8207334,2 6.21637809,2 L9.78362191,2 C10.171936,2 10.5,2.29847683 10.5,2.66666667 L10.5,2.66666667 Z M4,4.5 L4,12.9833336 C4,13.5448229 4.45303631,14 4.99703014,14 L11.0029699,14 C11.5536144,14 12,13.5417953 12,12.9833336 L12,4.5 L4,4.5 Z M10.25,5.56086957 L9.75,5.56086957 L9.75,12.5608696 L10.25,12.5608696 L10.25,5.56086957 Z M8.25,5.56086957 L7.75,5.56086957 L7.75,12.5608696 L8.25,12.5608696 L8.25,5.56086957 Z M6.25,5.56086957 L5.75,5.56086957 L5.75,12.5608696 L6.25,12.5608696 L6.25,5.56086957 Z"></path>
        </g>
    </g>
</svg>