<?xml version="1.0" encoding="UTF-8" standalone="no"?>
<svg width="16px" height="16px" viewBox="0 0 16 16" version="1.1" xmlns="http://www.w3.org/2000/svg" xmlns:xlink="http://www.w3.org/1999/xlink">
    <!-- Generator: Sketch 3.6.1 (26313) - http://www.bohemiancoding.com/sketch -->
    <title>update</title>
    <desc>Created with Sketch.</desc>
    <defs></defs>
    <g id="Icons" stroke="none" stroke-width="1" fill="none" fill-rule="evenodd">
        <g id="update" fill="#000000">
            <path d="M14,6.74666667 L9.48,6.74666667 L11.3066667,4.86666667 C9.48666667,3.06666667 6.54,3 4.72,4.8 C2.9,6.60666667 2.9,9.52 4.72,11.3266667 C6.54,13.1333333 9.48666667,13.1333333 11.3066667,11.3266667 C12.2133333,10.4333333 12.6666667,9.38666667 12.6666667,8.06666667 L14,8.06666667 C14,9.38666667 13.4133333,11.1 12.24,12.26 C9.9,14.58 6.1,14.58 3.76,12.26 C1.42666667,9.94666667 1.40666667,6.18666667 3.74666667,3.87333333 C6.08666667,1.56 9.84,1.56 12.18,3.87333333 L14,2 L14,6.74666667 L14,6.74666667 Z M8.33333333,5.33333333 L8.33333333,8.16666667 L10.6666667,9.55333333 L10.1866667,10.36 L7.33333333,8.66666667 L7.33333333,5.33333333 L8.33333333,5.33333333 L8.33333333,5.33333333 Z"></path>
        </g>
    </g>
</svg>