<?xml version="1.0" encoding="utf-8"?>
<!-- Generator: Adobe Illustrator 16.0.4, SVG Export Plug-In . SVG Version: 6.00 Build 0)  -->
<!DOCTYPE svg PUBLIC "-//W3C//DTD SVG 1.1//EN" "http://www.w3.org/Graphics/SVG/1.1/DTD/svg11.dtd">
<svg version="1.1" id="Layer_1" xmlns="http://www.w3.org/2000/svg" xmlns:xlink="http://www.w3.org/1999/xlink" x="0px" y="0px"
	 width="16px" height="16px" viewBox="0 0 16 16" enable-background="new 0 0 16 16" xml:space="preserve">
<title>warning</title>
<path fill="#EA322F" d="M8.725,9C8.703,9.4,8.362,9.707,7.962,9.686C7.591,9.666,7.295,9.371,7.276,9V5.138
	c0.021-0.4,0.362-0.707,0.762-0.686c0.371,0.02,0.667,0.315,0.687,0.686V9z M8,12.139c-0.4-0.001-0.725-0.326-0.724-0.727
	s0.326-0.725,0.726-0.725c0.4,0.001,0.725,0.326,0.725,0.727C8.726,11.814,8.4,12.139,8,12.139z M14.807,11.114L9.391,2.73
	C9.073,2.275,8.555,2.002,8,2C7.457,2,6.943,2.264,6.626,2.706l-5.432,8.408c-0.007,0.011-0.014,0.021-0.02,0.032
	C1.157,11.188,1,11.555,1,11.896c0,0.931,0.758,1.69,1.69,1.69h10.621c0.932,0,1.689-0.76,1.689-1.69
	c0-0.342-0.157-0.709-0.175-0.75c-0.006-0.012-0.013-0.021-0.021-0.032H14.807z"/>
</svg>
