<?xml version="1.0" encoding="utf-8"?>
<!-- Generator: Adobe Illustrator 22.1.0, SVG Export Plug-In . SVG Version: 6.00 Build 0)  -->
<svg version="1.1" id="Layer_1" xmlns="http://www.w3.org/2000/svg" xmlns:xlink="http://www.w3.org/1999/xlink" x="0px" y="0px"
	 viewBox="0 0 16 16" style="enable-background:new 0 0 16 16;" xml:space="preserve">
<style type="text/css">
	.st0{fill:#FDDD40;}
</style>
<title>warning</title>
<path class="st0" d="M8.7,9c0,0.4-0.4,0.7-0.8,0.7C7.6,9.7,7.3,9.4,7.3,9V5.1c0-0.4,0.4-0.7,0.8-0.7c0.4,0,0.7,0.3,0.7,0.7V9z
	 M8,12.1c-0.4,0-0.7-0.3-0.7-0.7s0.3-0.7,0.7-0.7c0.4,0,0.7,0.3,0.7,0.7C8.7,11.8,8.4,12.1,8,12.1z M14.8,11.1L9.4,2.7
	C9.1,2.3,8.6,2,8,2C7.5,2,6.9,2.3,6.6,2.7l-5.4,8.4c0,0,0,0,0,0c0,0-0.2,0.4-0.2,0.8c0,0.9,0.8,1.7,1.7,1.7h10.6
	c0.9,0,1.7-0.8,1.7-1.7C15,11.6,14.8,11.2,14.8,11.1C14.8,11.1,14.8,11.1,14.8,11.1L14.8,11.1z"/>
</svg>
