<svg width="16" height="16" viewBox="0 0 16 16" xmlns="http://www.w3.org/2000/svg">
  <title>warning</title>
  <path d="M8.724 9a.725.725 0 0 1-1.448 0V5.138a.725.725 0 0 1 1.448 0V9zM8 12.138a.725.725 0 1 1 .002-1.45.725.725 0 0 1-.002 1.45zm6.806-1.024L9.39 2.73A1.703 1.703 0 0 0 8 2c-.543 0-1.057.264-1.374.706l-5.432 8.408a.225.225 0 0 0-.02.033c-.017.04-.174.407-.174.75 0 .93.758 1.69 1.69 1.69h10.62c.932 0 1.69-.76 1.69-1.69 0-.343-.157-.71-.175-.75a.225.225 0 0 0-.02-.033z" fill-rule="evenodd"/>
</svg>
