<?xml version="1.0" encoding="utf-8"?>
<!-- Generator: Adobe Illustrator 23.0.2, SVG Export Plug-In . SVG Version: 6.00 Build 0)  -->
<svg version="1.1" id="Layer_1" xmlns="http://www.w3.org/2000/svg" xmlns:xlink="http://www.w3.org/1999/xlink" x="0px" y="0px"
	 viewBox="0 0 500 500" style="enable-background:new 0 0 500 500;" xml:space="preserve">
<style type="text/css">
	.st0{fill:#CE0E2D;}
</style>
<g>
	<g>
		<path d="M250,500C112.2,500,0,387.9,0,250S112.2,0,250,0s250,112.2,250,250S387.8,500,250,500z M250,27.5
			C127.3,27.5,27.5,127.3,27.5,250c0,122.7,99.8,222.5,222.5,222.5S472.5,372.7,472.5,250C472.5,127.3,372.7,27.5,250,27.5z"/>
	</g>
	<g>
		<g>
			<path class="st0" d="M188.3,171.6l-21.2-21.1l-16.6,16.6l21.1,21.1L188.3,171.6z M155.8,238.2h-35.3v23.6h35.3V238.2z
				 M261.8,121.1h-23.6v34.7h23.6V121.1z M349.5,167.1l-16.6-16.6l-21.1,21.1l16.6,16.6L349.5,167.1z M311.7,328.4l21.1,21.2
				l16.6-16.6l-21.2-21.1C328.2,311.9,311.7,328.4,311.7,328.4z M344.2,238.2v23.6h35.3v-23.6H344.2z M250,179.3
				c-39,0-70.7,31.7-70.7,70.7s31.7,70.7,70.7,70.7s70.7-31.7,70.7-70.7S289,179.3,250,179.3z M238.2,378.9h23.6v-34.7h-23.6V378.9z
				 M150.5,332.9l16.6,16.6l21.1-21.2l-16.6-16.6L150.5,332.9z"/>
		</g>
	</g>
</g>
</svg>
