<?xml version="1.0" encoding="utf-8"?>
<!-- Generator: Adobe Illustrator 23.0.2, SVG Export Plug-In . SVG Version: 6.00 Build 0)  -->
<svg version="1.1" id="Layer_1" xmlns="http://www.w3.org/2000/svg" xmlns:xlink="http://www.w3.org/1999/xlink" x="0px" y="0px"
	 viewBox="0 0 500 500" style="enable-background:new 0 0 500 500;" xml:space="preserve">
<style type="text/css">
	.st0{fill:#CE0E2D;}
</style>
<g>
	<g>
		<path d="M250,500C112.1,500,0,387.9,0,250S112.1,0,250,0c137.9,0,250,112.1,250,250S387.9,500,250,500z M250,27.5
			C127.3,27.5,27.5,127.3,27.5,250c0,122.7,99.8,222.5,222.5,222.5S472.5,372.7,472.5,250C472.5,127.3,372.7,27.5,250,27.5z"/>
	</g>
	<g>
		<path class="st0" d="M250,250"/>
	</g>
	<g>
		<path class="st0" d="M310.2,354.6l17.3-17.3l-26-112.8l47.7-47.7c7.2-7.2,7.2-18.8,0-26c-7.2-7.2-18.8-7.2-26,0l-47.7,47.7
			l-112.8-26l-17.3,17.3l91.1,47.7l-47.7,47.7l-30.4-4.3l-13,13l39,21.7l21.7,39l13-13l-4.3-30.4l47.7-47.7L310.2,354.6z"/>
	</g>
</g>
</svg>
