<?xml version="1.0" encoding="utf-8"?>
<!-- Generator: Adobe Illustrator 23.0.2, SVG Export Plug-In . SVG Version: 6.00 Build 0)  -->
<svg version="1.1" id="Layer_1" xmlns="http://www.w3.org/2000/svg" xmlns:xlink="http://www.w3.org/1999/xlink" x="0px" y="0px"
	 viewBox="0 0 500 500" style="enable-background:new 0 0 500 500;" xml:space="preserve">
<style type="text/css">
	.st0{fill:#CE0E2D;}
</style>
<g>
	<g>
		<path class="st0" d="M248.3344269,419.2009583c75.0536652,0,137.8589325-54.8575745,154.3083038-128.5137024H94.026123
			C110.4755173,364.3433838,173.2807617,419.2009583,248.3344269,419.2009583z"/>
	</g>
	<g>
		<path d="M249.9993286,500C112.1490936,500,0,387.8495789,0,249.9993286S112.1490936,0,249.9993286,0
			S500,112.1490936,500,249.9993286S387.8495789,500,249.9993286,500z M249.9993286,27.3433437
			c-122.7726746,0-222.6559906,99.8833084-222.6559906,222.6559906c0,122.7740173,99.8833084,222.6573181,222.6559906,222.6573181
			c122.7740173,0,222.6573181-99.8833008,222.6573181-222.6573181
			C472.6566467,127.2266541,372.7733459,27.3433437,249.9993286,27.3433437z"/>
	</g>
	<g>
		<path d="M287.6538391,300.6846619c-3.2203064,0-6.4513245-1.1295166-9.0521545-3.4312744l-88.8805389-78.625473
			l-28.6330719,25.7678986c-5.6128693,5.0521088-14.2577972,4.5955048-19.3072357-1.0160217
			c-5.0521088-5.6128693-4.5968323-14.2564545,1.016037-19.3072357l46.7667236-42.0911255l107.1530762,94.791153
			c5.6555786,5.0040283,6.1842957,13.6423035,1.1829224,19.2978821
			C295.1972961,299.1252136,291.434906,300.6846619,287.6538391,300.6846619z"/>
	</g>
	<g>
		<path d="M186.5101776,300.6846619c-3.2189941,0-6.4513245-1.1295166-9.0534821-3.4312744L28.799963,165.7489929
			c-5.6555862-5.0027161-6.1842937-13.643631-1.1815834-19.2992249c5.0027103-5.6515808,13.6409626-6.1829529,19.2992191-1.1815796
			l148.656723,131.5043945c5.6555939,5.0040283,6.1842957,13.6423035,1.1815948,19.2978821
			C194.0536194,299.1252136,190.2912445,300.6846619,186.5101776,300.6846619z"/>
	</g>
	<g>
		<path d="M248.3344269,432.8726196c-80.4051819,0-149.3456421-57.2420959-167.651535-139.2053833l-3.7183228-16.6516724
			h342.7410583l-3.7196655,16.6516724C397.681427,375.6305237,328.7409363,432.8726196,248.3344269,432.8726196z
			 M112.0276031,304.3589172c20.418045,60.3529358,74.3437195,101.1703796,136.3068237,101.1703796
			c61.9657745,0,115.8887787-40.8174438,136.3081818-101.1703796H112.0276031z"/>
	</g>
	<g>
		<path d="M478.0185242,302.9036255H18.6503506c-7.550128,0-13.6716728-6.1202087-13.6716728-13.6716614
			c0-7.5514832,6.1215444-13.6716919,13.6716728-13.6716919h459.3681641c7.5514526,0,13.6716614,6.1202087,13.6716614,13.6716919
			C491.6901855,296.7834167,485.5699768,302.9036255,478.0185242,302.9036255z"/>
	</g>
</g>
</svg>
