<?xml version="1.0" encoding="utf-8"?>
<!-- Generator: Adobe Illustrator 23.0.2, SVG Export Plug-In . SVG Version: 6.00 Build 0)  -->
<svg version="1.1" id="Layer_1" xmlns="http://www.w3.org/2000/svg" xmlns:xlink="http://www.w3.org/1999/xlink" x="0px" y="0px"
	 viewBox="0 0 500 500" style="enable-background:new 0 0 500 500;" xml:space="preserve">
<style type="text/css">
	.st0{fill:none;}
	.st1{fill:#CE0E2D;}
</style>
<g>
	<path class="st0" d="M472.5,245.1C469.9,124.6,371.1,27.3,250,27.3S30.1,124.6,27.5,245.1H472.5z"/>
	<path class="st1" d="M250,472.7c82.7,0,155-45.4,193.4-112.5H56.6C95,427.3,167.3,472.7,250,472.7z"/>
	<path class="st1" d="M43.4,332.8h413.2c7.6-19,12.8-39.3,14.9-60.4H28.5C30.6,293.6,35.7,313.8,43.4,332.8z"/>
	<path d="M27.3,250c0,7.6,0.4,15.1,1.1,22.4h443.1c0.7-7.4,1.1-14.9,1.1-22.4c0-1.6-0.1-3.3-0.1-4.9H27.5
		C27.4,246.7,27.3,248.4,27.3,250z"/>
	<path d="M0,258.8c0,0.9,0.1,1.8,0.3,2.7c-0.1-1.3-0.1-2.6-0.2-3.9C0.1,258,0,258.3,0,258.8z"/>
	<path d="M56.6,360.2h386.7c5-8.8,9.4-17.9,13.3-27.3H43.4C47.2,342.3,51.6,351.4,56.6,360.2z"/>
	<path d="M250,0C112.2,0,0,112.1,0,250c0,2.5,0,5,0.1,7.5c0,1.3,0.1,2.6,0.2,3.9C6.3,394,116,500,250,500c137.8,0,250-112.2,250-250
		S387.8,0,250,0z M250,27.3c121.1,0,219.9,97.2,222.5,217.8c0,1.6,0.1,3.3,0.1,4.9c0,7.6-0.4,15.1-1.1,22.4
		c-2.1,21.1-7.3,41.4-14.9,60.4c-3.8,9.5-8.2,18.6-13.3,27.3C405,427.3,332.7,472.7,250,472.7S95,427.3,56.6,360.2
		c-5-8.8-9.4-17.9-13.2-27.3c-7.6-19-12.8-39.3-14.9-60.4c-0.7-7.4-1.1-14.9-1.1-22.4c0-1.6,0.1-3.3,0.1-4.9
		C30.1,124.6,128.9,27.3,250,27.3z"/>
</g>
</svg>
