<?xml version="1.0" encoding="utf-8"?>
<!-- Generator: Adobe Illustrator 23.0.2, SVG Export Plug-In . SVG Version: 6.00 Build 0)  -->
<svg version="1.1" id="Layer_1" xmlns="http://www.w3.org/2000/svg" xmlns:xlink="http://www.w3.org/1999/xlink" x="0px" y="0px"
	 viewBox="0 0 500 500" style="enable-background:new 0 0 500 500;" xml:space="preserve">
<style type="text/css">
	.st0{fill:#CE0E2D;}
</style>
<g>
	<g>
		<path class="st0" d="M0,263.3c0,0,115-54.5,175.5-30.3s136.8-14.4,136.8-14.4l168.5-21.3c0,0,53.3,222.2-183.5,280.2
			S0,263.3,0,263.3z"/>
	</g>
	<g>
		<path d="M387.6,319.9c-53.8,0-85.6-12.6-149.5-37.9c-9.9-3.9-20.7-8.2-32.4-12.8C92,225,26.2,268.9,25.6,269.3
			c-6.2,4.3-14.7,2.7-19-3.5c-4.3-6.2-2.7-14.7,3.5-19c3.1-2.2,78.5-52.4,205.5-3c11.8,4.6,22.6,8.9,32.5,12.8
			c92.2,36.5,111.4,44.1,228.1,28.4c7.5-1,14.3,4.2,15.3,11.7c1,7.5-4.2,14.3-11.7,15.3C441.1,317.3,412.1,319.9,387.6,319.9z"/>
	</g>
	<g>
		<path d="M217.5,271.9c-4.6,0-9.2-2.4-11.7-6.6c-3.9-6.5-1.8-14.8,4.7-18.7c5.8-3.5,144.5-85.5,272.8-62.7
			c7.4,1.3,12.4,8.4,11,15.8c-1.3,7.4-8.4,12.4-15.8,11c-118.2-21-252.6,58.5-254,59.3C222.3,271.3,219.8,271.9,217.5,271.9z"/>
	</g>
	<g>
		<path d="M250.7,499.3C113.3,499.3,1.4,387.5,1.4,250S113.3,0.7,250.7,0.7S500,112.5,500,250S388.2,499.3,250.7,499.3z M250.7,28
			c-122.4,0-222,99.6-222,222c0,122.4,99.6,222,222,222c122.4,0,222-99.6,222-222C472.7,127.6,373.1,28,250.7,28z"/>
	</g>
</g>
</svg>
