<?xml version="1.0" encoding="utf-8"?>
<!-- Generator: Adobe Illustrator 23.0.2, SVG Export Plug-In . SVG Version: 6.00 Build 0)  -->
<svg version="1.1" id="Layer_1" xmlns="http://www.w3.org/2000/svg" xmlns:xlink="http://www.w3.org/1999/xlink" x="0px" y="0px"
	 viewBox="0 0 500 500" style="enable-background:new 0 0 500 500;" xml:space="preserve">
<style type="text/css">
	.st0{fill:#CE0E2D;}
</style>
<g>
	<g>
		<polygon class="st0" points="16.6,298.3 114.4,284 369.3,290 393.6,338.6 339.7,401.6 229.8,417.5 138.7,393.2 96,353.9 
			23.4,356.8 		"/>
	</g>
	<g>
		<path d="M285.4,297c-3.2,0-6.5-1.1-9.1-3.4L187.4,215l-28.6,25.8c-5.6,5.1-14.3,4.6-19.3-1c-5.1-5.6-4.6-14.3,1-19.3l46.8-42.1
			l107.2,94.8c5.7,5,6.2,13.6,1.2,19.3C292.9,295.5,289.1,297,285.4,297z"/>
	</g>
	<g>
		<path d="M184.2,297c-3.2,0-6.5-1.1-9.1-3.4L26.5,162.1c-5.7-5-6.2-13.6-1.2-19.3c5-5.7,13.6-6.2,19.3-1.2l148.7,131.5
			c5.7,5,6.2,13.6,1.2,19.3C191.8,295.5,188,297,184.2,297z"/>
	</g>
	<g>
		<path d="M228.6,430.5c-68.5,0-89.3-25-106.1-45.1c-12.3-14.7-20.4-24.5-47.3-24.5H33.9v-27.3h41.4c39.6,0,54.8,18.2,68.2,34.3
			c15.1,18.1,29.5,35.2,85.1,35.2c108.9,0,155.1-57.8,155.1-80.9c0-16.7-10.8-19.5-17.2-19.7l-350.1,0v-27.3h350.2
			c17.8,0,44.4,12.5,44.4,47c0,23.3-18.4,50.5-48.1,71C338.4,410.3,295.2,430.5,228.6,430.5z"/>
	</g>
	<g>
		<path d="M250,500C112.1,500,0,387.8,0,250S112.1,0,250,0s250,112.1,250,250S387.8,500,250,500z M250,27.3
			C127.2,27.3,27.3,127.2,27.3,250c0,122.8,99.9,222.7,222.7,222.7c122.8,0,222.7-99.9,222.7-222.7C472.7,127.2,372.8,27.3,250,27.3
			z"/>
	</g>
</g>
</svg>
