<?xml version="1.0" encoding="utf-8"?>
<!-- Generator: Adobe Illustrator 23.0.2, SVG Export Plug-In . SVG Version: 6.00 Build 0)  -->
<svg version="1.1" id="Layer_1" xmlns="http://www.w3.org/2000/svg" xmlns:xlink="http://www.w3.org/1999/xlink" x="0px" y="0px"
	 viewBox="0 0 500 500" style="enable-background:new 0 0 500 500;" xml:space="preserve">
<style type="text/css">
	.st0{fill:#CE0E2D;}
</style>
<g>
	<g>
		<path class="st0" d="M484.2,289.8H16.5c0,0,67.2,200.3,225,200.3S484.2,308,484.2,289.8z"/>
	</g>
	<g>
		<g>
			<rect x="16.5" y="275.3" width="467.1" height="27.3"/>
		</g>
		<g>
			<path d="M250,500c-60.4,0-118.7-21.8-164.1-61.4c-45-39.2-74.6-93.2-83.2-151.9C0.9,274.6,0,262.3,0,250C0,112.2,112.1,0,250,0
				s250,112.2,250,250S387.8,500,250,500z M250,27.3C127.2,27.3,27.3,127.2,27.3,250c0,10.9,0.8,21.9,2.4,32.7
				C37.4,335,63.7,383,103.8,418c40.5,35.3,92.4,54.7,146.2,54.7c122.8,0,222.7-99.9,222.7-222.7C472.7,127.2,372.8,27.3,250,27.3z"
				/>
		</g>
		<g>
			<path d="M306.1,299.8c-3.2,0-6.5-1.1-9.1-3.4l-88.9-78.6l-28.6,25.8c-5.6,5.1-14.3,4.6-19.3-1c-5.1-5.6-4.6-14.3,1-19.3
				l46.8-42.1l107.2,94.8c5.7,5,6.2,13.6,1.2,19.3C313.7,298.3,309.9,299.8,306.1,299.8z"/>
		</g>
		<g>
			<path d="M205,299.8c-3.2,0-6.5-1.1-9.1-3.4L32.1,151.2c-5.7-5,9,0,14-5.6c5-5.7-1.5-19.9,4.1-14.9l163.8,145.2
				c5.7,5,6.2,13.6,1.2,19.3C212.5,298.3,208.8,299.8,205,299.8z"/>
		</g>
	</g>
</g>
</svg>
