<?xml version="1.0" encoding="utf-8"?>
<!-- Generator: Adobe Illustrator 23.0.2, SVG Export Plug-In . SVG Version: 6.00 Build 0)  -->
<svg version="1.1" id="Layer_1" xmlns="http://www.w3.org/2000/svg" xmlns:xlink="http://www.w3.org/1999/xlink" x="0px" y="0px"
	 viewBox="0 0 500 500" style="enable-background:new 0 0 500 500;" xml:space="preserve">
<style type="text/css">
	.st0{fill:#CE0E2D;}
</style>
<g>
	<g>
		<path class="st0" d="M16.5,290.8l132.1-6.8v36.4h206.3V284l128.7,7.7c0,0-60.7,178.1-221.4,195.2C101.4,504,16.5,290.8,16.5,290.8
			z"/>
	</g>
	<g>
		<rect x="16.5" y="277.1" width="139" height="27.3"/>
	</g>
	<g>
		<rect x="344.5" y="278" width="139" height="27.3"/>
	</g>
	<g>
		<path d="M250,500C112.2,500,0,387.8,0,250C0,112.1,112.2,0,250,0c137.8,0,250,112.1,250,250C500,387.8,387.8,500,250,500z
			 M250,27.3C127.2,27.3,27.3,127.2,27.3,250S127.2,472.7,250,472.7c122.8,0,222.7-99.9,222.7-222.7S372.8,27.3,250,27.3z"/>
	</g>
	<g>
		<path d="M366.5,333.2H137.8V213.8L28.9,182.3c-7.3-2.1-11.4-9.7-9.3-16.9c2.1-7.3,9.7-11.4,16.9-9.3l128.6,37.3v112.6h174V193.3
			L467.8,156c7.3-2.1,14.8,2.1,16.9,9.3c2.1,7.3-2.1,14.8-9.3,16.9l-108.9,31.6V333.2z"/>
	</g>
</g>
</svg>
