<?xml version="1.0" encoding="utf-8"?>
<!-- Generator: Adobe Illustrator 23.0.2, SVG Export Plug-In . SVG Version: 6.00 Build 0)  -->
<svg version="1.1" id="Layer_1" xmlns="http://www.w3.org/2000/svg" xmlns:xlink="http://www.w3.org/1999/xlink" x="0px" y="0px"
	 viewBox="0 0 500 500" style="enable-background:new 0 0 500 500;" xml:space="preserve">
<style type="text/css">
	.st0{fill:#CE0E2D;}
</style>
<g>
	<g>
		<polyline class="st0" points="16.5,274.9 22.6,335.6 104,349.5 453.5,353.8 486.5,273 429.2,250.6 13.5,258.8 		"/>
	</g>
	<g>
		<g>
			<path d="M483.5,272.4H13.7c-7.6,0-13.7-6.1-13.7-13.7c0-7.6,6.1-13.7,13.7-13.7h469.9c7.6,0,13.7,6.1,13.7,13.7
				C497.2,266.3,491.1,272.4,483.5,272.4z"/>
		</g>
		<g>
			<path d="M462.7,360.2H37.9c-7.6,0-13.7-6.1-13.7-13.7s6.1-13.7,13.7-13.7h424.8c7.6,0,13.7,6.1,13.7,13.7
				S470.3,360.2,462.7,360.2z"/>
		</g>
		<g>
			<path d="M250,500C112.1,500,0,387.8,0,250S112.1,0,250,0s250,112.1,250,250S387.8,500,250,500z M250,27.3
				C127.2,27.3,27.3,127.2,27.3,250c0,122.8,99.9,222.7,222.7,222.7c122.8,0,222.7-99.9,222.7-222.7
				C472.7,127.2,372.8,27.3,250,27.3z"/>
		</g>
	</g>
</g>
</svg>
