<?xml version="1.0" encoding="utf-8"?>
<!-- Generator: Adobe Illustrator 23.0.2, SVG Export Plug-In . SVG Version: 6.00 Build 0)  -->
<svg version="1.1" id="Layer_1" xmlns="http://www.w3.org/2000/svg" xmlns:xlink="http://www.w3.org/1999/xlink" x="0px" y="0px"
	 viewBox="0 0 500 500" style="enable-background:new 0 0 500 500;" xml:space="preserve">
<style type="text/css">
	.st0{fill:#CE0E2D;}
</style>
<g>
	<g>
		<path class="st0" d="M14.2,272.7l91-72.8l48.5,42.5l121.4-78.9l66.8,60.7l54.6-24.3l90.3,79.4c0,0-23.5,181.6-187.4,199.8
			s-192.5-38.6-192.5-38.6l-71.6-85.7L14.2,272.7z"/>
	</g>
	<g>
		<path d="M16.5,274.8c-4,0-7.9-1.7-10.6-5c-4.8-5.8-3.9-14.5,1.9-19.2L108.6,168l64.3,57.9c5.6,5.1,6.1,13.7,1,19.3
			c-5.1,5.6-13.7,6.1-19.3,1l-46.9-42.2l-82.7,67.6C22.6,273.8,19.5,274.8,16.5,274.8z"/>
	</g>
	<g>
		<path d="M247.2,327.6c-3.8,0-7.5-1.6-10.2-4.6c-5-5.7-4.5-14.3,1.2-19.3l153.9-136.2l100.8,94.7c5.5,5.2,5.8,13.8,0.6,19.3
			c-5.2,5.5-13.8,5.8-19.3,0.6l-82.7-77.7L256.3,324.2C253.7,326.5,250.4,327.6,247.2,327.6z"/>
	</g>
	<g>
		<path d="M86,327.6c-3.8,0-7.5-1.6-10.2-4.6c-5-5.7-4.5-14.3,1.2-19.3l194.6-172.1l80.4,72.4c5.6,5.1,6.1,13.7,1,19.3
			c-5,5.6-13.7,6.1-19.3,1l-62.3-56L95,324.2C92.4,326.5,89.2,327.6,86,327.6z"/>
	</g>
	<g>
		<path d="M250,500C112.1,500,0,387.9,0,250S112.1,0,250,0s250,112.2,250,250S387.8,500,250,500z M250,27.3
			C127.2,27.3,27.3,127.2,27.3,250c0,122.8,99.9,222.7,222.7,222.7c122.8,0,222.7-99.9,222.7-222.7C472.7,127.2,372.8,27.3,250,27.3
			z"/>
	</g>
</g>
</svg>
