<?xml version="1.0" encoding="utf-8"?>
<!-- Generator: Adobe Illustrator 23.0.2, SVG Export Plug-In . SVG Version: 6.00 Build 0)  -->
<svg version="1.1" id="Layer_1" xmlns="http://www.w3.org/2000/svg" xmlns:xlink="http://www.w3.org/1999/xlink" x="0px" y="0px"
	 viewBox="0 0 500 500" style="enable-background:new 0 0 500 500;" xml:space="preserve">
<style type="text/css">
	.st0{fill:#CE0E2D;}
</style>
<g>
	<g>
		<path d="M250,500C112.1,500,0,387.9,0,250S112.1,0,250,0s250,112.1,250,250S387.9,500,250,500z M250,27.5
			C127.3,27.5,27.5,127.3,27.5,250c0,122.7,99.8,222.5,222.5,222.5c122.7,0,222.5-99.8,222.5-222.5C472.5,127.3,372.7,27.5,250,27.5
			z"/>
	</g>
	<g>
		<path class="st0" d="M250.1,140.3c24.4,43.7,49.2,86.1,64.7,133.1c11.7,35.2-11,76-49.5,84.7c-38.9,8.7-75.5-16.3-82.4-55.5
			c-2.9-16.7,2.5-31.7,8.3-46.5C207,216,228,178.5,250.1,140.3z"/>
	</g>
</g>
</svg>
