<svg width="24" height="24" viewBox="0 0 24 24" xmlns="http://www.w3.org/2000/svg"><title>Admin Gear</title><path d="M12 7.71A4.29 4.29 0 0 0 7.71 12 4.29 4.29 0 0 0 12 16.29 4.29 4.29 0 0 0 16.29 12 4.29 4.29 0 0 0 12 7.71zm0 7.712a3.428 3.428 0 1 1 0-6.856 3.428 3.428 0 0 1 0 6.855zm11.145-2.46l-3.235.925c-.2.855-.54 1.652-.984 2.38l1.63 2.928-1.36 1.36-2.93-1.63a8.465 8.465 0 0 1-2.32.973l-.95 3.247h-1.992l-.95-3.247a8.02 8.02 0 0 1-2.26-.937L4.827 20.58l-1.406-1.406 1.617-2.965a8.02 8.02 0 0 1-.938-2.262l-3.247-.95v-1.99l3.247-.962c.2-.797.515-1.56.937-2.25L3.42 4.828l1.406-1.406L7.793 5.04a7.75 7.75 0 0 1 2.32-.95L11.04.855h1.92l.927 3.235c.855.2 1.652.527 2.38.984l2.928-1.64 1.36 1.37-1.63 2.93c.446.727.786 1.524.985 2.38l3.235.925v1.92zm-9.4 10.722h.013l.902-3.082a8.507 8.507 0 0 0 1.606-.692l2.8 1.56v-.013c.164.094.375.07.504-.06l1.828-1.827c.13-.13.153-.34.06-.504h.01l-1.558-2.8a8.85 8.85 0 0 0 .703-1.688l3.07-.88v-.01a.412.412 0 0 0 .317-.4v-2.577c0-.198-.13-.35-.316-.398v-.01l-3.07-.88a8.85 8.85 0 0 0-.704-1.688l1.56-2.8h-.013a.443.443 0 0 0-.06-.516L19.57 2.602c-.13-.14-.34-.153-.504-.06v-.01l-2.8 1.558a8.586 8.586 0 0 0-1.688-.715l-.88-3.07-.01.01a.412.412 0 0 0-.4-.315h-2.577a.412.412 0 0 0-.398.316l-.01-.01-.88 3.07a9.66 9.66 0 0 0-1.606.667L4.97 2.496a.448.448 0 0 0-.517.082L2.578 4.453a.448.448 0 0 0-.082.516l1.547 2.846a8.58 8.58 0 0 0-.633 1.512l-3.094.914v.012a.42.42 0 0 0-.316.422v2.648c0 .2.13.364.316.422l3.094.914c.164.54.375 1.043.633 1.524L2.496 19.02v.01a.448.448 0 0 0 .082.517l1.875 1.875c.14.14.352.164.516.07v.012l2.846-1.547c.48.258.985.47 1.524.645l.902 3.082h.012c.06.175.21.316.422.316h2.648c.21 0 .364-.14.422-.316z" fill="#808F98" fill-rule="evenodd"/></svg>