<svg xmlns="http://www.w3.org/2000/svg" viewBox="-13.05 8.347 100 87.02125000000001"><path fill="#2598C6" d="M86.95 43.22S66.82 77.964 36.95 77.964C7.075 77.964-13.05 43.22-13.05 43.22S7.075 8.347 36.948 8.347C66.82 8.347 86.95 43.22 86.95 43.22zm-25.514 0c0-13.46-11.027-24.486-24.488-24.486-13.46 0-24.488 11.024-24.488 24.486 0 13.463 11.027 24.488 24.488 24.488 13.46 0 24.488-11.024 24.488-24.488zM36.948 32.196c-6.024 0-10.898 5.127-10.898 11.024a10.89 10.89 0 0 0 10.898 10.898c5.9 0 11.026-4.872 11.026-10.898 0-5.897-5.126-11.024-11.026-11.024z"/></svg>