<svg id="Layer_1" data-name="Layer 1" xmlns="http://www.w3.org/2000/svg" viewBox="0 0 773.974 951.149"><defs><style>.cls-1{fill:rgba(255,255,255,.03)}</style></defs><path class="cls-1" d="M-426.337-78.492c0-92.022 75.866-166.657 170.35-166.657 94.093 0 170.486 74.635 170.486 166.657 0 92.254-76.393 167.088-170.486 167.088-94.484 0-170.35-74.834-170.35-167.088" transform="translate(602.02 245.149)"/><path class="cls-1" d="M285.42 951.149l-78.712-216.485-.024 216.485H.768L0 368.822h689.106l.784 582.327H485.492l-.04-216.645-74.77 216.645H285.42z"/><path class="cls-1" d="M121.87 675.481a21.833 21.833 0 1 1 21.849 21.92 21.923 21.923 0 0 1-21.849-21.92m-6.427 0a28.256 28.256 0 1 0 28.276-28.467 28.35 28.35 0 0 0-28.276 28.467" transform="translate(602.02 245.149)"/><path class="cls-1" d="M137.85 692.032V677.9h1.255a8.453 8.453 0 0 1 3.006.367 4.35 4.35 0 0 1 1.823 1.44c.535.655 1.583 2.302 3.237 4.956l4.35 7.37h7.218l-3.677-6.555a43.804 43.804 0 0 0-3.47-5.572 14.207 14.207 0 0 0-3.237-2.83 9.088 9.088 0 0 0 5.86-3.054 9.646 9.646 0 0 0 2.006-6.379 10.221 10.221 0 0 0-1.327-5.356 7.77 7.77 0 0 0-3.43-3.19 19.349 19.349 0 0 0-6.907-.903H131.91v33.84zm0-28.107h4.733a23.926 23.926 0 0 1 4.876.24 3.497 3.497 0 0 1 1.879 1.343 4.419 4.419 0 0 1 .647 2.598 4.893 4.893 0 0 1-.647 2.726 3.332 3.332 0 0 1-1.847 1.327 24.77 24.77 0 0 1-5.148.335h-4.493z" transform="translate(602.02 245.149)"/></svg>