<svg width="24" height="21" viewBox="0 0 24 21" xmlns="http://www.w3.org/2000/svg"><title>Pages</title><path d="M1.266 7.29L12 .925 22.736 7.29 12 13.652 1.267 7.29zM12 16.652L1.267 10.29l1.7-1.008 8.812 5.238.012-.012c.058.036.128.07.21.07a.41.41 0 0 0 .21-.07l.013.012 8.813-5.238 1.7 1.007L12 16.652zm10.735-3.363L12 19.653 1.267 13.29l1.7-1.008 8.812 5.238.012-.01c.058.034.128.07.21.07a.41.41 0 0 0 .21-.07l.013.01 8.813-5.238 1.7 1.008zM12.21 20.51l.013.01 11.567-6.867a.44.44 0 0 0 .21-.363.44.44 0 0 0-.21-.364l-1.91-1.136 1.91-1.137a.44.44 0 0 0 .21-.364.44.44 0 0 0-.21-.364L21.88 8.79l1.91-1.137A.44.44 0 0 0 24 7.29a.44.44 0 0 0-.21-.364L12.223.06l-.012.01A.41.41 0 0 0 12 0a.41.41 0 0 0-.21.07l-.012-.01L.21 6.925A.44.44 0 0 0 0 7.29a.44.44 0 0 0 .21.363L2.12 8.79.21 9.925a.44.44 0 0 0-.21.363.44.44 0 0 0 .21.363l1.91 1.137-1.91 1.136a.44.44 0 0 0-.21.364.44.44 0 0 0 .21.363L11.78 20.52l.012-.01c.058.034.128.07.21.07a.41.41 0 0 0 .21-.07z" fill="#808F98" fill-rule="evenodd"/></svg>