<?xml version="1.0" encoding="utf-8"?>
<!-- Generator: Adobe Illustrator 16.0.4, SVG Export Plug-In . SVG Version: 6.00 Build 0)  -->
<!DOCTYPE svg PUBLIC "-//W3C//DTD SVG 1.1//EN" "http://www.w3.org/Graphics/SVG/1.1/DTD/svg11.dtd">
<svg version="1.1" id="Layer_1" xmlns="http://www.w3.org/2000/svg" xmlns:xlink="http://www.w3.org/1999/xlink" x="0px" y="0px"
	 width="288px" height="252px" viewBox="0 0 288 252" enable-background="new 0 0 288 252" xml:space="preserve">
<g>
	<g>
		<g>
			<path fill="#FFFFFF" d="M143.891,161.964c1.225-2.011,3.265-4.1,5.454-4.983c3.762-1.726,8.831-0.992,11.911,1.729
				c2.982,2.7,4.494,6.397,3.783,10.536c0.738-0.135,1.472-0.608,2.25-0.869c4.609-1.302,9.503,0.111,12.464,4.084
				c2.237,2.827,2.812,7.227,1.476,10.635c-0.667,1.727-1.799,3.279-3.263,4.596l0.149,0.141c4.304,0.214,8.532,3.552,9.842,7.653
				c1.402,4.135,0.164,8.551-2.865,11.57c-2.474,2.437-5.637,3.288-9.169,3.212h-64.064c-5.268,0.114-9.33-2.217-11.523-6.893
				c-1.712-4.021-0.874-9.159,2.347-12.207c2.005-2.122,4.54-2.991,7.281-3.424c-3.09-2.863-4.589-6.799-3.718-11.006
				c0.628-3.413,3.535-6.869,6.871-8.059c2.947-1.169,6.929-0.965,9.628,0.625l0.103-0.114c-0.815-4.647,1.249-8.834,5.09-11.399
				c3.429-2.316,8.927-2.265,12.298,0.205C141.741,158.923,142.989,160.507,143.891,161.964"/>
			<path fill="#5B5B97" d="M162.037,163.699c1.36,2.771,0.576,6.412-0.879,8.904l-11.113,25.021l-0.092,0.107l-4.029-25.375
				c-0.322-2.427,2.294-3.467,3.821-4.643c-0.067-0.358-0.476-0.34-0.726-0.506l-3.746-0.04l-0.113-0.117
				c0.012-3.142,1.721-6.058,4.585-7.583c2.999-1.738,7.229-1.265,9.827,0.956C160.624,161.366,161.521,162.465,162.037,163.699"/>
			<path fill="#B42A47" d="M141.553,162.821c0.899,1.679,1.436,3.596,1.11,5.706l-4.53,29.051c0.019,0.047-0.017,0.079-0.059,0.096
				l-1.167-2.331l-11.366-25.38c-1.062-3.271-0.073-6.683,2.295-9.021c2.396-2.438,6.358-3.102,9.48-1.771
				C138.986,159.881,140.562,161.205,141.553,162.821"/>
			<path fill="#068DC4" d="M178.479,175.059c1.527,2.607,1.182,6.55-0.513,8.97c-1.06,1.7-2.804,2.544-4.257,3.663l-23.542,16.157
				h-0.065l0.267-0.775l12.481-28.157c1.869-3.322,5.43-5.009,9.213-4.5C174.645,170.882,177.226,172.563,178.479,175.059"/>
			<path fill="#E16527" d="M124.996,174.913l12.987,28.933h-0.216l-26.18-18.047c-2.666-2.239-3.748-5.604-2.844-9.004
				c0.674-2.549,2.792-4.93,5.299-5.871C118.158,169.418,122.803,171.018,124.996,174.913"/>
			<path fill="#0CA84B" d="M185.307,195.483c1.294,2.753,0.783,6.53-1.076,8.876c-1.852,2.248-4.327,3.467-7.23,3.39l-27.913,0.023
				l23.386-16.265c2.291-1.473,5.758-1.74,8.248-0.551C182.648,191.702,184.455,193.596,185.307,195.483"/>
			<path fill="#EFB426" d="M102.648,195.483c-1.309,2.753-0.799,6.53,1.066,8.876c1.855,2.248,4.332,3.467,7.231,3.39l27.921,0.023
				l-23.39-16.265c-2.282-1.473-5.758-1.74-8.255-0.551C105.3,191.702,103.487,193.596,102.648,195.483"/>
		</g>
		<path fill="#068DC4" d="M144.001,251.299L16.824,187.666C6.278,182.262,0,171.924,0,159.998V46.834
			c0-16.562,6.323-24.489,24.156-30.289c1.6-0.548,41.32-13.845,119.847-13.845c78.115,0,118.045,13.163,120.093,13.856
			C281.746,22.292,288,30.216,288,46.834v113.164c0,11.936-6.277,22.271-16.794,27.654L144.001,251.299z M144.003,10.122
			c-77.126,0-117.104,13.329-117.498,13.462C11.692,28.403,7.423,33.615,7.423,46.834v113.164c0,9.087,4.77,16.953,12.755,21.048
			l123.822,61.956l123.855-61.97c8.075-4.135,12.725-11.804,12.725-21.032V46.834c0-13.441-4.041-18.434-18.794-23.224l-0.049-0.017
			C261.337,23.46,221.135,10.122,144.003,10.122z"/>
		<g>
			<g>
				<path fill="#010101" d="M111.299,72.157h24.868V39.636h-0.185H52.419c-14.583,0-26.998,8.822-29.303,23.463
					c-0.253,1.6-0.389,3.266-0.389,5.001c0,0,0.065,11.169,0.183,12.284c1.574,14.962,13.423,24.271,27.738,24.983l0.019,0.002
					c0.581,0.028,1.164,0.047,1.752,0.047l55.251,0.002c1.495,0,2.72,1.223,2.72,2.72v10.274c0,1.494-1.223,2.719-2.72,2.719
					l-59.959,0.002v-7.538H22.725v32.522h83.751c16.177,0,29.691-10.854,29.691-28.462l-0.007-0.009v-8.796
					c0-1.736-0.136-3.401-0.389-5.001c-2.266-14.383-14.292-23.13-28.544-23.433H51.269c-1.495,0-2.72-1.223-2.72-2.72V67.341
					c0-1.495,1.223-2.72,2.72-2.72h59.917v7.538h0.113V72.157z"/>
				<g>
					<path fill="#010101" d="M240.219,121.135l-59.959-0.002c-1.495,0-2.721-1.223-2.721-2.719v-10.274
						c0-1.495,1.223-2.72,2.721-2.72l55.251-0.002c0.588,0,1.171-0.019,1.752-0.047l0.019-0.002
						c14.312-0.71,26.164-10.021,27.738-24.983c0.117-1.115,0.183-12.284,0.183-12.284c0-1.736-0.136-3.401-0.389-5.001
						c-2.306-14.639-14.721-23.463-29.303-23.463h-54.06c-16.178,0-29.691,10.853-29.691,28.464l0.007,46.073l0,0v3.472
						l-0.007,0.009c0,17.609,13.514,28.462,29.691,28.462h83.751v-32.519h-24.983V121.135z M179.461,80.413
						c-1.495,0-2.721-1.223-2.721-2.72V67.336c0-1.495,1.223-2.72,2.721-2.72h57.197c1.026,0,1.896,0.6,2.357,1.445
						c0.21,0.387,0.362,0.806,0.362,1.274v10.356c0,1.495-1.223,2.72-2.72,2.72H179.461z"/>
				</g>
			</g>
		</g>
	</g>
</g>
</svg>
