<svg width="36" height="16" viewBox="0 0 36 16" xmlns="http://www.w3.org/2000/svg"><title>Switch Off</title><defs><linearGradient x1="50%" y1="0%" x2="50%" y2="100%" id="a"><stop stop-color="#FFF" offset="0%"/><stop stop-color="#F1F3F4" offset="100%"/></linearGradient></defs><g fill="none" fill-rule="evenodd"><rect fill="#808F98" width="36" height="16" rx="2"/><path d="M23.828 8.137c0 .945-.234 1.672-.703 2.18-.47.507-1.14.76-2.016.76-.876 0-1.547-.253-2.016-.76-.47-.508-.703-1.238-.703-2.188 0-.952.236-1.678.706-2.18.47-.5 1.144-.75 2.02-.75.88 0 1.55.252 2.015.757.466.505.698 1.232.698 2.18zm-4.168 0c0 .638.12 1.118.363 1.44.243.324.605.486 1.086.486.966 0 1.45-.642 1.45-1.926 0-1.287-.482-1.93-1.443-1.93-.482 0-.845.162-1.09.486-.244.325-.367.806-.367 1.444zM26.203 11h-1.19V5.29h3.272v.99h-2.082v1.474h1.938v.988h-1.937V11zm4.39 0h-1.19V5.29h3.273v.99h-2.082v1.474h1.937v.988h-1.936V11z" fill="#FFF"/><rect fill="url(#a)" x="1" y="1" width="14" height="14" rx="1"/><path d="M6 5.333V11h.8V5H6v.333zm1.6 0V11h.8V5h-.8v.333zm1.6 0V11h.8V5h-.8v.333z" fill="#B9C1C6"/></g></svg>