<svg width="36" height="16" viewBox="0 0 36 16" xmlns="http://www.w3.org/2000/svg"><title>Switch On</title><defs><linearGradient x1="50%" y1="0%" x2="50%" y2="100%" id="a"><stop stop-color="#FFF" offset="0%"/><stop stop-color="#F1F3F4" offset="100%"/></linearGradient></defs><g fill="none" fill-rule="evenodd"><rect fill="#1997C8" width="36" height="16" rx="2"/><rect fill="url(#a)" x="21" y="1" width="14" height="14" rx="1"/><path d="M26 5.333V11h.8V5H26v.333zm1.6 0V11h.8V5h-.8v.333zm1.6 0V11h.8V5h-.8v.333z" fill="#B9C1C6"/><path d="M9.967 8.137c0 .945-.235 1.672-.703 2.18-.47.507-1.14.76-2.016.76-.875 0-1.547-.253-2.016-.76-.468-.508-.703-1.238-.703-2.188 0-.952.234-1.678.704-2.18.47-.5 1.144-.75 2.022-.75.877 0 1.55.252 2.014.757.464.505.697 1.232.697 2.18zm-4.168 0c0 .638.12 1.118.362 1.44.242.324.604.486 1.086.486.966 0 1.45-.642 1.45-1.926 0-1.287-.48-1.93-1.442-1.93-.482 0-.845.162-1.09.486-.245.325-.367.806-.367 1.444zM16.216 11h-1.54l-2.484-4.32h-.035c.05.763.074 1.307.074 1.633V11H11.15V5.29h1.528l2.48 4.276h.028a34.63 34.63 0 0 1-.06-1.574V5.29h1.09V11z" fill="#FFF"/></g></svg>