<?xml version="1.0" encoding="utf-8"?>
<!-- Generator: Adobe Illustrator 16.0.1, SVG Export Plug-In . SVG Version: 6.00 Build 0)  -->
<!DOCTYPE svg PUBLIC "-//W3C//DTD SVG 1.1//EN" "http://www.w3.org/Graphics/SVG/1.1/DTD/svg11.dtd">
<svg version="1.1" id="Layer_1" xmlns="http://www.w3.org/2000/svg" xmlns:xlink="http://www.w3.org/1999/xlink" x="0px" y="0px"
	 width="408.92px" height="72px" viewBox="0 0 408.92 72" enable-background="new 0 0 408.92 72" xml:space="preserve">
<g id="White">
	<g>
		<path fill="#23282b" d="M296.177,57.688h-7.5c-3.333,0-4.701-0.894-5.716-3.631l-7.56-21.016h-0.297l-6.072,24.646h-12.084
			l10.357-41.671h9.584c3.215,0,4.645,0.951,5.536,3.57l6.368,18.574h0.298l5.358-22.145h12.084L296.177,57.688z"/>
		<path fill="#23282b" d="M321,42.865l2.143-8.573h20.775l-0.952,3.87c-2.561,10.417-5.536,14.229-7.382,16.072
			c-2.798,2.799-5.655,3.453-10.001,3.453h-10.774c-5.298,0-7.44-1.013-8.632-2.201c-2.738-2.74-3.869-8.455-1.132-19.942
			c2.501-10.42,5.657-14.229,7.501-16.074c2.799-2.798,5.655-3.452,10.001-3.452h11.192c5.297,0,7.56,1.013,8.75,2.202
			c2.022,2.023,2.977,5.715,2.083,12.085H332.37c0.596-3.036,0.236-3.93-0.062-4.229c-0.356-0.355-0.951-0.534-3.153-0.534h-4.703
			c-1.846,0-2.5,0.119-2.978,0.596c-0.476,0.476-1.488,1.666-3.69,10.773c-2.143,8.752-1.547,10.299-1.13,10.716
			c0.355,0.357,0.952,0.536,3.153,0.536h4.764c1.845,0,2.501-0.179,2.976-0.654c0.418-0.417,0.952-1.071,2.084-4.644H321z"/>
		<path fill="#23282b" d="M341.653,57.688l10.358-41.67h12.798l-10.356,41.67H341.653z"/>
		<path fill="#23282b" d="M398.561,57.688h-7.5c-3.333,0-4.702-0.894-5.715-3.631l-7.56-21.016h-0.298l-6.072,24.646h-12.084
			l10.357-41.671h9.585c3.214,0,4.643,0.951,5.535,3.57l6.368,18.574h0.298l5.359-22.145h12.084L398.561,57.688z"/>
	</g>
	<g>
		<path fill="#23282b" d="M12.925,43.637c-0.891,2.979-0.891,3.812-0.477,4.229c0.416,0.417,1.072,0.537,3.098,0.537h5.773
			c1.369,0,2.023,0,2.441-0.418c0.297-0.299,0.713-0.836,1.07-2.321c0.357-1.369,0.357-2.202,0-2.562
			c-0.178-0.178-0.537-0.297-1.25-0.477l-12.322-2.618c-2.68-0.597-3.93-1.19-5.061-2.263c-1.904-1.846-2.32-4.881-1.012-9.941
			c1.191-4.881,3.096-7.561,4.643-9.167c1.846-1.846,4.348-2.619,7.502-2.619h15.24c3.629,0,5.832,0.714,7.082,1.965
			c1.904,1.904,1.904,5.059,0.537,11.548H28.462c0.477-2.44,0.535-3.273,0.119-3.69c-0.416-0.418-1.072-0.536-3.096-0.536h-4.822
			c-1.369,0-2.082,0-2.439,0.357c-0.297,0.298-0.596,0.892-0.953,2.263c-0.297,1.249-0.357,1.903,0,2.261
			c0.238,0.238,0.535,0.417,1.25,0.535l12.145,2.502c2.738,0.595,3.988,1.13,5.119,2.261c1.904,1.906,2.383,5.001,1.072,10.181
			c-1.25,4.999-3.156,7.738-4.764,9.346c-1.904,1.905-4.404,2.68-7.619,2.68H8.283c-3.453,0-5.656-0.654-6.848-1.904
			c-1.844-1.848-2.023-5.775,0.121-12.146h11.369V43.637z"/>
		<path fill="#23282b" d="M74.537,41.734c-2.561,2.56-5.895,2.975-9.645,2.975H52.986l-3.213,12.979H36.974l10.357-41.67h21.252
			c5.357,0,8.096,0.833,9.881,2.619c2.381,2.44,2.502,6.312,1.311,12.322C78.585,37.031,76.263,40.007,74.537,41.734z M57.75,25.421
			l-2.441,9.883h5.953c2.32,0,3.154-0.119,3.75-0.715c0.596-0.595,1.072-1.368,1.785-4.344c0.715-2.918,0.418-3.811-0.059-4.287
			c-0.416-0.417-1.012-0.537-3.75-0.537H57.75z"/>
		<path fill="#23282b" d="M89.476,57.688c-5.299,0-7.441-1.013-8.633-2.201c-2.738-2.74-3.869-8.455-1.131-19.942
			c2.5-10.42,5.656-14.229,7.5-16.074c2.799-2.798,5.656-3.452,10.002-3.452h10.893c5.299,0,7.443,1.013,8.633,2.202
			c2.738,2.738,3.869,8.453,1.131,19.942c-2.5,10.417-5.656,14.229-7.5,16.072c-2.797,2.799-5.656,3.453-10.002,3.453H89.476z
			 M91.261,47.508c0.357,0.356,0.895,0.534,3.096,0.534h3.988c1.846,0,2.5-0.118,2.977-0.594c0.477-0.478,1.547-1.489,3.811-10.597
			c2.141-8.751,1.607-10.24,1.189-10.657c-0.355-0.356-0.893-0.535-3.094-0.535h-3.99c-1.844,0-2.5,0.118-2.977,0.596
			c-0.477,0.478-1.547,1.487-3.809,10.596C90.25,45.604,90.845,47.091,91.261,47.508z"/>
		<path fill="#23282b" d="M154.121,57.688h-13.035c0.238-2.56,0.713-5.239,1.367-8.395c0.775-3.393,0.418-4.465-0.236-5.12
			c-0.537-0.536-1.311-0.772-3.988-0.772h-5.18l-3.512,14.287h-12.799l10.357-41.67h24.289c4.463,0,7.262,0.773,8.809,2.737
			c1.607,2.145,1.846,5.357,0.537,10.418c-1.727,6.727-4.643,8.811-9.406,9.704v0.117c4.166,1.251,5.773,3.038,4.465,9.288
			C155.015,51.914,154.419,55.425,154.121,57.688z M137.513,25.481l-2.203,8.931h6.549c2.322,0,3.156-0.12,3.75-0.716
			c0.477-0.475,1.072-1.367,1.607-3.57c0.535-2.264,0.416-3.453-0.178-4.05c-0.416-0.415-1.072-0.595-3.691-0.595H137.513z"/>
		<path fill="#23282b" d="M187.812,25.72l-7.916,31.968h-12.799l7.916-31.968h-12.025l2.441-9.703h37.146l-2.439,9.703H187.812z"/>
	</g>
	<g>
		<g>
			<path fill="#23282b" d="M210.454,28.294c1.021,0.01,2.049-0.247,2.999-0.699l3.337,2.617c0.693-0.872,1.475-1.678,2.327-2.384
				l-2.261-3.26c0.459-0.724,0.802-1.511,0.987-2.348c0.771-3.391-1.292-6.17-4.608-6.207c-3.32-0.035-6.635,2.683-7.403,6.076
				C205.06,25.481,207.13,28.261,210.454,28.294z M235.924,28.708l11.708-8.229c1.314,0.842,2.924,1.334,4.75,1.352
				c5.898,0.062,11.786-4.772,13.155-10.799c1.364-6.026-2.312-10.968-8.207-11.03c-5.901-0.065-11.785,4.768-13.151,10.799
				c-0.492,2.167-0.322,4.189,0.361,5.907l-10.02,10.229C235.065,27.462,235.537,28.056,235.924,28.708z M214.351,42.539
				l-5.979,3.504c-0.708-0.414-1.554-0.652-2.513-0.666c-3.312-0.038-6.627,2.684-7.396,6.07c-0.764,3.393,1.303,6.172,4.615,6.211
				c3.319,0.035,6.633-2.688,7.403-6.079c0.229-1.031,0.197-2.011-0.053-2.874l5.032-4.212
				C215.013,43.904,214.638,43.246,214.351,42.539z M243.688,50.171c-1.147-0.01-2.301,0.162-3.422,0.503l-7.578-6.997
				c-1.029,1.005-2.189,1.856-3.429,2.539l3.839,9.453c-1.214,1.562-2.117,3.367-2.559,5.295c-1.364,6.031,2.307,10.97,8.207,11.035
				c5.895,0.065,11.785-4.772,13.15-10.804C253.265,55.167,249.59,50.24,243.688,50.171z"/>
			<path fill="#23282b" d="M232.951,36.337c-0.968,4.267-5.134,7.688-9.306,7.644c-4.174-0.047-6.777-3.541-5.812-7.81
				c0.972-4.264,5.138-7.686,9.312-7.637C231.319,28.578,233.916,32.072,232.951,36.337z"/>
		</g>
	</g>
</g>
</svg>
