<svg xmlns="http://www.w3.org/2000/svg" viewBox="0 0 545.1 92">
  <style type="text/css">
    .st0{fill:#FFFFFF;}
  </style>
  <g>
    <g>
      <path class="st0" d="M274.9,58.9c0.5-0.7,1.2-1.5,2-1.8c1.4-0.6,3.3-0.4,4.4,0.6c1.1,1,1.7,2.4,1.4,3.9c0.3-0.1,0.5-0.2,0.8-0.3c1.7-0.5,3.5,0,4.6,1.5c0.8,1,1,2.7,0.5,3.9c-0.2,0.6-0.7,1.2-1.2,1.7l0.1,0.1c1.6,0.1,3.2,1.3,3.6,2.8c0.5,1.5,0.1,3.2-1.1,4.3c-0.9,0.9-2.1,1.2-3.4,1.2H263c-1.9,0-3.5-0.8-4.3-2.6c-0.6-1.5-0.3-3.4,0.9-4.5c0.7-0.8,1.7-1.1,2.7-1.3c-1.1-1.1-1.7-2.5-1.4-4.1c0.2-1.3,1.3-2.5,2.5-3c1.1-0.4,2.6-0.4,3.6,0.2l0,0c-0.3-1.7,0.5-3.3,1.9-4.2c1.3-0.9,3.3-0.8,4.6,0.1C274.1,57.8,274.5,58.4,274.9,58.9"/>
      <path class="st0" d="M281.6,59.6c0.5,1,0.2,2.4-0.3,3.3l-4.1,9.3l0,0l-1.5-9.4c-0.1-0.9,0.8-1.3,1.4-1.7c0-0.1-0.2-0.1-0.3-0.2l-1.4,0l0,0c0-1.2,0.6-2.2,1.7-2.8c1.1-0.6,2.7-0.5,3.6,0.4C281.1,58.7,281.4,59.1,281.6,59.6"/>
      <path class="st0" d="M274,59.3c0.3,0.6,0.5,1.3,0.4,2.1l-1.7,10.7c0,0,0,0,0,0l-0.4-0.9l-4.2-9.4c-0.4-1.2,0-2.5,0.8-3.3c0.9-0.9,2.4-1.1,3.5-0.7C273.1,58.2,273.6,58.7,274,59.3"/>
      <path class="st0" d="M287.7,63.8c0.6,1,0.4,2.4-0.2,3.3c-0.4,0.6-1,0.9-1.6,1.4l-8.7,6h0l0.1-0.3l4.6-10.4c0.7-1.2,2-1.9,3.4-1.7C286.2,62.2,287.2,62.9,287.7,63.8"/>
      <path class="st0" d="M267.9,63.7l4.8,10.7h-0.1l-9.7-6.7c-1-0.8-1.4-2.1-1.1-3.3c0.2-0.9,1-1.8,2-2.2C265.3,61.7,267.1,62.3,267.9,63.7"/>
      <path class="st0" d="M290.2,71.3c0.5,1,0.3,2.4-0.4,3.3c-0.7,0.8-1.6,1.3-2.7,1.3l-10.3,0l8.7-6c0.8-0.5,2.1-0.6,3.1-0.2C289.2,69.9,289.9,70.6,290.2,71.3"/>
      <path class="st0" d="M259.6,71.3c-0.5,1-0.3,2.4,0.4,3.3c0.7,0.8,1.6,1.3,2.7,1.3l10.3,0l-8.7-6c-0.8-0.5-2.1-0.6-3.1-0.2C260.6,69.9,259.9,70.6,259.6,71.3"/>
    </g>
    <path class="st0" d="M274.9,92l-47.1-23.5c-3.9-2-6.2-5.8-6.2-10.2V16.3c0-6.1,2.3-9.1,8.9-11.2c0.6-0.2,15.3-5.1,44.3-5.1c28.9,0,43.7,4.9,44.4,5.1c6.5,2.1,8.8,5.1,8.8,11.2v41.9c0,4.4-2.3,8.2-6.2,10.2L274.9,92z M274.9,2.7c-28.5,0-43.3,4.9-43.5,5c-5.5,1.8-7.1,3.7-7.1,8.6v41.9c0,3.4,1.8,6.3,4.7,7.8l45.8,22.9L320.7,66c3-1.5,4.7-4.4,4.7-7.8V16.3c0-5-1.5-6.8-7-8.6l0,0C318.3,7.7,303.5,2.7,274.9,2.7z"/>
    <g>
      <g>
        <g>
          <polygon class="st0" points="503.1,41.3 503.1,41.3 503.1,24.2"/>
          <polygon class="st0" points="503.1,41.3 503.1,42.5 503.1,41.3"/>
          <path class="st0" d="M535.9,43.8l-22.2,0c-0.6,0-1-0.5-1-1V39c0-0.6,0.5-1,1-1l20.4,0c0.2,0,0.4,0,0.6,0l0,0c5.3-0.3,9.7-3.7,10.3-9.2c0-0.4,0.1-4.5,0.1-4.5c0-0.6-0.1-1.3-0.1-1.9c-0.9-5.4-5.4-8.7-10.8-8.7h-20c-6,0-11,4-11,10.5l0,17h0v1.3l0,0c0,6.5,5,10.5,11,10.5h31V41h-9.2V43.8z M513.4,28.8c-0.6,0-1-0.5-1-1v-3.8c0-0.6,0.5-1,1-1h21.2c0.4,0,0.7,0.2,0.9,0.5c0.1,0.1,0.1,0.3,0.1,0.5v3.8c0,0.6-0.5,1-1,1H513.4z"/>
        </g>
        <g>
          <path class="st0" d="M426.6,13.7l-29.4,0c-3.3,0-6.2,1-8.3,2.8c-2.7,2.2-4.3,5.7-4.3,9.9v14.1c0,7.4,5.2,12.7,12.7,12.7h19.9v3.3c0,1.1-0.8,1.9-1.9,1.9h-29.1v9.2h29.6c6,0,11-4,11-10.5L426.6,13.7z M417.1,43c0,0.6-0.5,1-1,1h-20.9c-0.6,0-1-0.5-1-1V24.1c0-0.6,0.5-1,1-1h20.9c0.6,0,1,0.5,1,1V43z"/>
        </g>
        <path class="st0" d="M444.3,0.2v9.9h-9.5V0.2H444.3z M434.8,13.7h9.5l0,39.4h-9.5L434.8,13.7z"/>
        <path class="st0" d="M485.4,53.1V24.8c0-1.1-0.8-1.9-1.9-1.9H462v30.2h-9.5V13.7H484c6,0,11,4,11,10.5v28.9H485.4z"/>
        <g>
          <path class="st0" d="M365,22.9L365,22.9L365,22.9C365,22.9,365,22.9,365,22.9z"/>
          <path class="st0" d="M365.5,13.7h-31.6v39.4h9.5l0-29.1c0-0.6,0.5-1,1-1h21.4c0.6,0,1,0.5,1,1l0,29.1h9.5V24.2C376.4,17.7,371.4,13.7,365.5,13.7z"/>
        </g>
      </g>
      <g>
        <path class="st0" d="M79.3,13.7H49.9v53.8h9.5V53.1h19.9c7.4,0,12.7-5.2,12.7-12.7V26.3C91.9,18.8,86.8,13.7,79.3,13.7zM82.4,43c0,0.6-0.5,1-1,1H60.4c-0.6,0-1-0.5-1-1V24.1c0-0.6,0.5-1,1-1h20.9c0.6,0,1,0.5,1,1V43z"/>
        <path class="st0" d="M129.1,13.7h-16.7c-7.4,0-12.7,5.2-12.7,12.7v14.1c0,7.5,5.2,12.7,12.7,12.7h16.7c7.4,0,12.7-5.2,12.7-12.7V26.3C141.8,18.8,136.6,13.7,129.1,13.7z M132.2,42.8c0,0.6-0.5,1-1,1h-20.9c-0.6,0-1-0.5-1-1V23.9c0-0.6,0.5-1,1-1h20.9c0.6,0,1,0.5,1,1V42.8z"/>
        <path class="st0" d="M189,22.9v-9.2h6.1V5.3h9.5v8.3h11.2v9.2h-11.2v19c0,1.1,0.8,1.9,1.9,1.9h9.4v9.2h-9.8c-6,0-11-4-11-10.5V22.9H189z"/>
        <path class="st0" d="M183.4,24.2c0-3.8-1.7-6.7-4.2-8.5c-1.9-1.3-4.2-2.1-6.8-2.1l-23.1,0v39.4h9.5l0-29.2c0-0.6,0.5-1,1-1h13c0.6,0,1,0.5,1,1v6.4h9.5V24.2z"/>
        <path class="st0" d="M32.8,25.7H42v-12h-0.1H11c-5.4,0-10,3.3-10.8,8.7C0,22.9,0,23.6,0,24.2c0,0,0,4.1,0.1,4.5c0.6,5.5,5,9,10.3,9.2l0,0c0.2,0,0.4,0,0.6,0l20.4,0c0.6,0,1,0.5,1,1v3.8c0,0.6-0.5,1-1,1l-22.2,0V41H0v12h31c6,0,11-4,11-10.5l0,0v-3.3c0-0.6-0.1-1.3-0.1-1.9c-0.8-5.3-5.3-8.6-10.6-8.7H10.6c-0.6,0-1-0.5-1-1v-3.8c0-0.6,0.5-1,1-1h22.2L32.8,25.7L32.8,25.7z"/>
      </g>
      <g>
        <path class="st0" d="M262.8,25.7h9.2v-12h-0.1H241c-5.4,0-10,3.3-10.8,8.7c-0.1,0.6-0.1,1.2-0.1,1.9c0,0,0,4.1,0.1,4.5c0.6,5.5,5,9,10.3,9.2l0,0c0.2,0,0.4,0,0.6,0l20.4,0c0.6,0,1,0.5,1,1v3.8c0,0.6-0.5,1-1,1l-22.2,0V41H230v12h31c6,0,11-4,11-10.5l0,0v-3.3c0-0.6-0.1-1.3-0.1-1.9c-0.8-5.3-5.3-8.6-10.6-8.7h-20.7c-0.6,0-1-0.5-1-1v-3.8c0-0.6,0.5-1,1-1h22.2L262.8,25.7L262.8,25.7z"/>
        <g>
          <polygon class="st0" points="277.8,41.3 277.8,41.3 277.8,24.2"/>
          <polygon class="st0" points="277.8,41.3 277.8,42.5 277.8,41.3"/>
          <path class="st0" d="M310.5,43.8l-22.2,0c-0.6,0-1-0.5-1-1V39c0-0.6,0.5-1,1-1l20.4,0c0.2,0,0.4,0,0.6,0l0,0c5.3-0.3,9.7-3.7,10.3-9.2c0-0.4,0.1-4.5,0.1-4.5c0-0.6-0.1-1.3-0.1-1.9c-0.9-5.4-5.4-8.7-10.8-8.7h-20c-6,0-11,4-11,10.5l0,17h0v1.3l0,0c0,6.5,5,10.5,11,10.5h31V41h-9.2V43.8z M288,28.8c-0.6,0-1-0.5-1-1v-3.8c0-0.6,0.5-1,1-1h21.2c0.4,0,0.7,0.2,0.9,0.5c0.1,0.1,0.1,0.3,0.1,0.5v3.8c0,0.6-0.5,1-1,1H288z"/>
        </g>
      </g>
    </g>
  </g>
</svg>
