<svg width="13" height="14" viewBox="0 0 13 14" xmlns="http://www.w3.org/2000/svg"><title>Sport Ngin Logo</title><path d="M6.67 6.996c-.186.822-.988 1.48-1.79 1.473-.805-.01-1.307-.684-1.12-1.506.187-.82.99-1.48 1.793-1.47.803.008 1.303.68 1.118 1.5v.002zM8.738 9.66c-.22-.002-.443.032-.66.097L6.62 8.41c-.198.193-.42.357-.66.49l.74 1.818c-.234.302-.408.65-.494 1.02-.262 1.162.445 2.113 1.58 2.125 1.136.013 2.27-.92 2.533-2.08.26-1.16-.446-2.11-1.583-2.123zm-5.65-1.47l-1.15.675c-.136-.08-.3-.125-.484-.128C.817 8.73.178 9.254.03 9.907c-.146.652.25 1.188.89 1.195.64.007 1.28-.517 1.426-1.17.044-.2.037-.388-.01-.554l.97-.81c-.088-.114-.16-.24-.216-.378h-.002zm4.155-2.663l2.255-1.584c.253.162.562.257.914.26 1.137.012 2.27-.92 2.533-2.08C13.208.963 12.5.013 11.365 0c-1.136-.012-2.27.918-2.532 2.08-.095.417-.063.805.07 1.137l-1.93 1.97c.105.1.196.215.27.34zm-4.904-.08c.195.003.392-.046.575-.134l.643.504c.133-.167.283-.323.447-.46L3.57 4.73c.09-.14.154-.29.19-.45.148-.653-.25-1.19-.887-1.196-.64-.007-1.28.516-1.426 1.17-.15.653.25 1.19.89 1.195l.002-.003z" fill="#000" fill-rule="evenodd"/></svg>
