<?xml version="1.0" encoding="UTF-8" standalone="no"?>
<svg width="431px" height="431px" viewBox="0 0 431 431" version="1.1" xmlns="http://www.w3.org/2000/svg" xmlns:xlink="http://www.w3.org/1999/xlink" xmlns:sketch="http://www.bohemiancoding.com/sketch/ns">
    <!-- Generator: Sketch 3.3.2 (12043) - http://www.bohemiancoding.com/sketch -->
    <title>sportngin_mark_white</title>
    <desc>Created with Sketch.</desc>
    <defs>
        <path id="path-1" d="M0,0.689 L430.322,0.689 L430.322,430.94 L0,430.94 L0,0.689 Z"></path>
    </defs>
    <g id="Page-1" stroke="none" stroke-width="1" fill="none" fill-rule="evenodd" sketch:type="MSPage">
        <g id="sportngin_mark_white" sketch:type="MSLayerGroup">
            <mask id="mask-2" sketch:name="Clip 2" fill="white">
                <use xlink:href="#path-1"></use>
            </mask>
            <g id="Clip-2"></g>
            <path d="M228.294,217.202 C224.377,234.428 207.547,248.255 190.717,248.08 C173.844,247.893 163.317,233.774 167.237,216.544 C171.159,199.321 187.968,185.497 204.842,185.695 C221.687,185.871 232.175,199.975 228.294,217.202 L228.294,217.202 Z M271.65,273.081 C267.008,273.032 262.362,273.738 257.83,275.115 L227.22,246.839 C223.063,250.893 218.386,254.348 213.375,257.106 L228.877,295.275 C223.989,301.599 220.332,308.891 218.546,316.661 C213.042,341.034 227.861,360.978 251.698,361.238 C275.506,361.508 299.293,341.954 304.814,317.6 C310.33,293.255 295.49,273.364 271.65,273.081 L271.65,273.081 Z M153.162,242.244 L129.01,256.403 C126.153,254.728 122.732,253.777 118.863,253.71 C105.488,253.551 92.09,264.551 89.005,278.238 C85.912,291.939 94.253,303.166 107.622,303.312 C121.057,303.458 134.435,292.467 137.543,278.769 C138.477,274.596 138.331,270.644 137.335,267.154 L157.656,250.143 C155.844,247.765 154.326,245.115 153.162,242.244 L153.162,242.244 Z M240.294,186.387 L287.594,153.159 C292.905,156.556 299.372,158.535 306.761,158.616 C330.604,158.861 354.37,139.329 359.895,114.994 C365.413,90.652 350.573,70.702 326.751,70.448 C302.918,70.189 279.146,89.709 273.633,114.06 C271.65,122.814 272.328,130.971 275.086,137.919 L234.629,179.246 C236.821,181.353 238.727,183.754 240.294,186.387 L240.294,186.387 Z M137.423,184.718 C141.55,184.755 145.688,183.728 149.534,181.896 L163.011,192.466 C165.821,188.952 168.964,185.695 172.405,182.844 L163.279,169.683 C165.144,166.741 166.519,163.572 167.271,160.204 C170.383,146.5 162.054,135.276 148.659,135.121 C135.249,134.972 121.848,145.945 118.758,159.667 C115.638,173.348 123.993,184.589 137.423,184.718 L137.423,184.718 Z M85.562,31.716 C55.492,31.716 31.027,56.181 31.027,86.254 L31.027,345.435 C31.027,375.508 55.492,399.972 85.562,399.972 L344.758,399.972 C374.831,399.972 399.295,375.508 399.295,345.435 L399.295,86.254 C399.295,56.181 374.831,31.716 344.758,31.716 L85.562,31.716 L85.562,31.716 Z M344.758,431 L85.562,431 C38.382,431 0,392.615 0,345.435 L0,86.254 C0,39.074 38.382,0.689 85.562,0.689 L344.758,0.689 C391.938,0.689 430.322,39.074 430.322,86.254 L430.322,345.435 C430.322,392.615 391.938,431 344.758,431 L344.758,431 Z" id="Fill-1" fill="#FFFFFF" sketch:type="MSShapeGroup" mask="url(#mask-2)"></path>
        </g>
    </g>
</svg>